<?xml version="1.0" encoding="UTF-8"?>
<svg xmlns="http://www.w3.org/2000/svg" xmlns:xlink="http://www.w3.org/1999/xlink"
     width="81.45" height="208.73"
     viewBox="0 0 81.45 208.73">
<rect width="100%" height="100%" fill="white"/>
<text x="0" y="20.00" font-family="serif" font-size="14" fill="black">143 + 734 = 877</text>
<g transform="translate(0.00,29.33)">

<defs>
<g>
<symbol overflow="visible" id="s0_glyph0-0">
<path style="stroke:none;" d=""/>
</symbol>
<symbol overflow="visible" id="s0_glyph0-1">
<path style="stroke:none;" d="M 4.765625 -2.765625 L 8.0625 -2.765625 C 8.234375 -2.765625 8.453125 -2.765625 8.453125 -2.96875 C 8.453125 -3.203125 8.25 -3.203125 8.0625 -3.203125 L 4.765625 -3.203125 L 4.765625 -6.5 C 4.765625 -6.671875 4.765625 -6.890625 4.546875 -6.890625 C 4.328125 -6.890625 4.328125 -6.6875 4.328125 -6.5 L 4.328125 -3.203125 L 1.03125 -3.203125 C 0.859375 -3.203125 0.640625 -3.203125 0.640625 -2.984375 C 0.640625 -2.765625 0.84375 -2.765625 1.03125 -2.765625 L 4.328125 -2.765625 L 4.328125 0.53125 C 4.328125 0.703125 4.328125 0.921875 4.546875 0.921875 C 4.765625 0.921875 4.765625 0.71875 4.765625 0.53125 Z M 4.765625 -2.765625 "/>
</symbol>
<symbol overflow="visible" id="s0_glyph0-2">
<path style="stroke:none;" d="M 3.4375 -7.65625 C 3.4375 -7.9375 3.4375 -7.953125 3.203125 -7.953125 C 2.921875 -7.625 2.3125 -7.1875 1.09375 -7.1875 L 1.09375 -6.84375 C 1.359375 -6.84375 1.953125 -6.84375 2.625 -7.140625 L 2.625 -0.921875 C 2.625 -0.484375 2.578125 -0.34375 1.53125 -0.34375 L 1.15625 -0.34375 L 1.15625 0 C 1.484375 -0.03125 2.640625 -0.03125 3.03125 -0.03125 C 3.4375 -0.03125 4.578125 -0.03125 4.90625 0 L 4.90625 -0.34375 L 4.53125 -0.34375 C 3.484375 -0.34375 3.4375 -0.484375 3.4375 -0.921875 Z M 3.4375 -7.65625 "/>
</symbol>
<symbol overflow="visible" id="s0_glyph0-3">
<path style="stroke:none;" d="M 4.3125 -7.78125 C 4.3125 -8.015625 4.3125 -8.0625 4.140625 -8.0625 C 4.046875 -8.0625 4.015625 -8.0625 3.921875 -7.921875 L 0.328125 -2.34375 L 0.328125 -2 L 3.46875 -2 L 3.46875 -0.90625 C 3.46875 -0.46875 3.4375 -0.34375 2.5625 -0.34375 L 2.328125 -0.34375 L 2.328125 0 C 2.609375 -0.03125 3.546875 -0.03125 3.890625 -0.03125 C 4.21875 -0.03125 5.171875 -0.03125 5.453125 0 L 5.453125 -0.34375 L 5.21875 -0.34375 C 4.34375 -0.34375 4.3125 -0.46875 4.3125 -0.90625 L 4.3125 -2 L 5.515625 -2 L 5.515625 -2.34375 L 4.3125 -2.34375 Z M 3.53125 -6.84375 L 3.53125 -2.34375 L 0.625 -2.34375 Z M 3.53125 -6.84375 "/>
</symbol>
<symbol overflow="visible" id="s0_glyph0-4">
<path style="stroke:none;" d="M 2.203125 -4.296875 C 2 -4.28125 1.953125 -4.265625 1.953125 -4.15625 C 1.953125 -4.046875 2.015625 -4.046875 2.21875 -4.046875 L 2.765625 -4.046875 C 3.796875 -4.046875 4.25 -3.203125 4.25 -2.0625 C 4.25 -0.484375 3.4375 -0.078125 2.84375 -0.078125 C 2.265625 -0.078125 1.296875 -0.34375 0.9375 -1.140625 C 1.328125 -1.078125 1.671875 -1.296875 1.671875 -1.71875 C 1.671875 -2.0625 1.421875 -2.3125 1.09375 -2.3125 C 0.796875 -2.3125 0.484375 -2.140625 0.484375 -1.6875 C 0.484375 -0.625 1.546875 0.25 2.875 0.25 C 4.296875 0.25 5.359375 -0.84375 5.359375 -2.046875 C 5.359375 -3.140625 4.46875 -4 3.328125 -4.203125 C 4.359375 -4.5 5.03125 -5.375 5.03125 -6.3125 C 5.03125 -7.25 4.046875 -7.953125 2.890625 -7.953125 C 1.703125 -7.953125 0.8125 -7.21875 0.8125 -6.34375 C 0.8125 -5.875 1.1875 -5.765625 1.359375 -5.765625 C 1.609375 -5.765625 1.90625 -5.953125 1.90625 -6.3125 C 1.90625 -6.6875 1.609375 -6.859375 1.34375 -6.859375 C 1.28125 -6.859375 1.25 -6.859375 1.21875 -6.84375 C 1.671875 -7.65625 2.796875 -7.65625 2.859375 -7.65625 C 3.25 -7.65625 4.03125 -7.484375 4.03125 -6.3125 C 4.03125 -6.078125 4 -5.421875 3.640625 -4.90625 C 3.28125 -4.375 2.875 -4.34375 2.5625 -4.328125 Z M 2.203125 -4.296875 "/>
</symbol>
<symbol overflow="visible" id="s0_glyph0-5">
<path style="stroke:none;" d="M 5.671875 -7.421875 L 5.671875 -7.703125 L 2.796875 -7.703125 C 1.34375 -7.703125 1.328125 -7.859375 1.28125 -8.078125 L 1.015625 -8.078125 L 0.640625 -5.6875 L 0.90625 -5.6875 C 0.9375 -5.90625 1.046875 -6.640625 1.203125 -6.78125 C 1.296875 -6.84375 2.203125 -6.84375 2.359375 -6.84375 L 4.90625 -6.84375 L 3.640625 -5.03125 C 3.3125 -4.5625 2.109375 -2.609375 2.109375 -0.359375 C 2.109375 -0.234375 2.109375 0.25 2.59375 0.25 C 3.09375 0.25 3.09375 -0.21875 3.09375 -0.375 L 3.09375 -0.96875 C 3.09375 -2.75 3.375 -4.140625 3.9375 -4.9375 Z M 5.671875 -7.421875 "/>
</symbol>
<symbol overflow="visible" id="s0_glyph0-6">
<path style="stroke:none;" d="M 3.5625 -4.3125 C 4.15625 -4.640625 5.03125 -5.1875 5.03125 -6.1875 C 5.03125 -7.234375 4.03125 -7.953125 2.921875 -7.953125 C 1.75 -7.953125 0.8125 -7.078125 0.8125 -5.984375 C 0.8125 -5.578125 0.9375 -5.171875 1.265625 -4.765625 C 1.40625 -4.609375 1.40625 -4.609375 2.25 -4.015625 C 1.09375 -3.484375 0.484375 -2.671875 0.484375 -1.8125 C 0.484375 -0.53125 1.703125 0.25 2.921875 0.25 C 4.25 0.25 5.359375 -0.734375 5.359375 -1.984375 C 5.359375 -3.203125 4.5 -3.734375 3.5625 -4.3125 Z M 1.9375 -5.390625 C 1.78125 -5.5 1.296875 -5.8125 1.296875 -6.390625 C 1.296875 -7.171875 2.109375 -7.65625 2.921875 -7.65625 C 3.78125 -7.65625 4.546875 -7.046875 4.546875 -6.1875 C 4.546875 -5.453125 4.015625 -4.859375 3.328125 -4.484375 Z M 2.5 -3.84375 L 3.9375 -2.90625 C 4.25 -2.703125 4.8125 -2.328125 4.8125 -1.609375 C 4.8125 -0.6875 3.890625 -0.078125 2.921875 -0.078125 C 1.90625 -0.078125 1.046875 -0.8125 1.046875 -1.8125 C 1.046875 -2.734375 1.71875 -3.484375 2.5 -3.84375 Z M 2.5 -3.84375 "/>
</symbol>
</g>
</defs>
<g id="s0_surface1">
<g style="fill:rgb(0%,0%,0%);fill-opacity:1;">
  <use xlink:href="#s0_glyph0-1" x="9.963" y="34.641"/>
</g>
<path style="fill:none;stroke-width:0.398;stroke-linecap:butt;stroke-linejoin:miter;stroke:rgb(0%,0%,0%);stroke-opacity:1;stroke-miterlimit:10;" d="M 0.00184375 -0.00090625 L 41.177625 -0.00090625 " transform="matrix(1,0,0,-1,9.963,38.253)"/>
<g style="fill:rgb(0%,0%,0%);fill-opacity:1;">
  <use xlink:href="#s0_glyph0-2" x="22.478" y="20.195"/>
</g>
<g style="fill:rgb(0%,0%,0%);fill-opacity:1;">
  <use xlink:href="#s0_glyph0-3" x="32.7786" y="20.195"/>
</g>
<g style="fill:rgb(0%,0%,0%);fill-opacity:1;">
  <use xlink:href="#s0_glyph0-4" x="43.067245" y="20.195"/>
</g>
<g style="fill:rgb(0%,0%,0%);fill-opacity:1;">
  <use xlink:href="#s0_glyph0-5" x="22.478" y="34.641"/>
</g>
<g style="fill:rgb(0%,0%,0%);fill-opacity:1;">
  <use xlink:href="#s0_glyph0-4" x="32.7786" y="34.641"/>
</g>
<g style="fill:rgb(0%,0%,0%);fill-opacity:1;">
  <use xlink:href="#s0_glyph0-3" x="43.067245" y="34.641"/>
</g>
<g style="fill:rgb(0%,0%,0%);fill-opacity:1;">
  <use xlink:href="#s0_glyph0-6" x="22.478" y="49.087"/>
</g>
<g style="fill:rgb(0%,0%,0%);fill-opacity:1;">
  <use xlink:href="#s0_glyph0-5" x="32.7786" y="49.087"/>
</g>
<g style="fill:rgb(0%,0%,0%);fill-opacity:1;">
  <use xlink:href="#s0_glyph0-5" x="43.067245" y="49.087"/>
</g>
</g>

</g>
<text x="0" y="125.69" font-family="serif" font-size="14" fill="black">验算：</text>
<g transform="translate(0.00,135.02)">

<defs>
<g>
<symbol overflow="visible" id="s1_glyph0-0">
<path style="stroke:none;" d=""/>
</symbol>
<symbol overflow="visible" id="s1_glyph0-1">
<path style="stroke:none;" d="M 7.875 -2.75 C 8.078125 -2.75 8.296875 -2.75 8.296875 -2.984375 C 8.296875 -3.234375 8.078125 -3.234375 7.875 -3.234375 L 1.40625 -3.234375 C 1.203125 -3.234375 0.984375 -3.234375 0.984375 -2.984375 C 0.984375 -2.75 1.203125 -2.75 1.40625 -2.75 Z M 7.875 -2.75 "/>
</symbol>
<symbol overflow="visible" id="s1_glyph1-0">
<path style="stroke:none;" d=""/>
</symbol>
<symbol overflow="visible" id="s1_glyph1-1">
<path style="stroke:none;" d="M 3.5625 -4.3125 C 4.15625 -4.640625 5.03125 -5.1875 5.03125 -6.1875 C 5.03125 -7.234375 4.03125 -7.953125 2.921875 -7.953125 C 1.75 -7.953125 0.8125 -7.078125 0.8125 -5.984375 C 0.8125 -5.578125 0.9375 -5.171875 1.265625 -4.765625 C 1.40625 -4.609375 1.40625 -4.609375 2.25 -4.015625 C 1.09375 -3.484375 0.484375 -2.671875 0.484375 -1.8125 C 0.484375 -0.53125 1.703125 0.25 2.921875 0.25 C 4.25 0.25 5.359375 -0.734375 5.359375 -1.984375 C 5.359375 -3.203125 4.5 -3.734375 3.5625 -4.3125 Z M 1.9375 -5.390625 C 1.78125 -5.5 1.296875 -5.8125 1.296875 -6.390625 C 1.296875 -7.171875 2.109375 -7.65625 2.921875 -7.65625 C 3.78125 -7.65625 4.546875 -7.046875 4.546875 -6.1875 C 4.546875 -5.453125 4.015625 -4.859375 3.328125 -4.484375 Z M 2.5 -3.84375 L 3.9375 -2.90625 C 4.25 -2.703125 4.8125 -2.328125 4.8125 -1.609375 C 4.8125 -0.6875 3.890625 -0.078125 2.921875 -0.078125 C 1.90625 -0.078125 1.046875 -0.8125 1.046875 -1.8125 C 1.046875 -2.734375 1.71875 -3.484375 2.5 -3.84375 Z M 2.5 -3.84375 "/>
</symbol>
<symbol overflow="visible" id="s1_glyph1-2">
<path style="stroke:none;" d="M 5.671875 -7.421875 L 5.671875 -7.703125 L 2.796875 -7.703125 C 1.34375 -7.703125 1.328125 -7.859375 1.28125 -8.078125 L 1.015625 -8.078125 L 0.640625 -5.6875 L 0.90625 -5.6875 C 0.9375 -5.90625 1.046875 -6.640625 1.203125 -6.78125 C 1.296875 -6.84375 2.203125 -6.84375 2.359375 -6.84375 L 4.90625 -6.84375 L 3.640625 -5.03125 C 3.3125 -4.5625 2.109375 -2.609375 2.109375 -0.359375 C 2.109375 -0.234375 2.109375 0.25 2.59375 0.25 C 3.09375 0.25 3.09375 -0.21875 3.09375 -0.375 L 3.09375 -0.96875 C 3.09375 -2.75 3.375 -4.140625 3.9375 -4.9375 Z M 5.671875 -7.421875 "/>
</symbol>
<symbol overflow="visible" id="s1_glyph1-3">
<path style="stroke:none;" d="M 3.4375 -7.65625 C 3.4375 -7.9375 3.4375 -7.953125 3.203125 -7.953125 C 2.921875 -7.625 2.3125 -7.1875 1.09375 -7.1875 L 1.09375 -6.84375 C 1.359375 -6.84375 1.953125 -6.84375 2.625 -7.140625 L 2.625 -0.921875 C 2.625 -0.484375 2.578125 -0.34375 1.53125 -0.34375 L 1.15625 -0.34375 L 1.15625 0 C 1.484375 -0.03125 2.640625 -0.03125 3.03125 -0.03125 C 3.4375 -0.03125 4.578125 -0.03125 4.90625 0 L 4.90625 -0.34375 L 4.53125 -0.34375 C 3.484375 -0.34375 3.4375 -0.484375 3.4375 -0.921875 Z M 3.4375 -7.65625 "/>
</symbol>
<symbol overflow="visible" id="s1_glyph1-4">
<path style="stroke:none;" d="M 4.3125 -7.78125 C 4.3125 -8.015625 4.3125 -8.0625 4.140625 -8.0625 C 4.046875 -8.0625 4.015625 -8.0625 3.921875 -7.921875 L 0.328125 -2.34375 L 0.328125 -2 L 3.46875 -2 L 3.46875 -0.90625 C 3.46875 -0.46875 3.4375 -0.34375 2.5625 -0.34375 L 2.328125 -0.34375 L 2.328125 0 C 2.609375 -0.03125 3.546875 -0.03125 3.890625 -0.03125 C 4.21875 -0.03125 5.171875 -0.03125 5.453125 0 L 5.453125 -0.34375 L 5.21875 -0.34375 C 4.34375 -0.34375 4.3125 -0.46875 4.3125 -0.90625 L 4.3125 -2 L 5.515625 -2 L 5.515625 -2.34375 L 4.3125 -2.34375 Z M 3.53125 -6.84375 L 3.53125 -2.34375 L 0.625 -2.34375 Z M 3.53125 -6.84375 "/>
</symbol>
<symbol overflow="visible" id="s1_glyph1-5">
<path style="stroke:none;" d="M 2.203125 -4.296875 C 2 -4.28125 1.953125 -4.265625 1.953125 -4.15625 C 1.953125 -4.046875 2.015625 -4.046875 2.21875 -4.046875 L 2.765625 -4.046875 C 3.796875 -4.046875 4.25 -3.203125 4.25 -2.0625 C 4.25 -0.484375 3.4375 -0.078125 2.84375 -0.078125 C 2.265625 -0.078125 1.296875 -0.34375 0.9375 -1.140625 C 1.328125 -1.078125 1.671875 -1.296875 1.671875 -1.71875 C 1.671875 -2.0625 1.421875 -2.3125 1.09375 -2.3125 C 0.796875 -2.3125 0.484375 -2.140625 0.484375 -1.6875 C 0.484375 -0.625 1.546875 0.25 2.875 0.25 C 4.296875 0.25 5.359375 -0.84375 5.359375 -2.046875 C 5.359375 -3.140625 4.46875 -4 3.328125 -4.203125 C 4.359375 -4.5 5.03125 -5.375 5.03125 -6.3125 C 5.03125 -7.25 4.046875 -7.953125 2.890625 -7.953125 C 1.703125 -7.953125 0.8125 -7.21875 0.8125 -6.34375 C 0.8125 -5.875 1.1875 -5.765625 1.359375 -5.765625 C 1.609375 -5.765625 1.90625 -5.953125 1.90625 -6.3125 C 1.90625 -6.6875 1.609375 -6.859375 1.34375 -6.859375 C 1.28125 -6.859375 1.25 -6.859375 1.21875 -6.84375 C 1.671875 -7.65625 2.796875 -7.65625 2.859375 -7.65625 C 3.25 -7.65625 4.03125 -7.484375 4.03125 -6.3125 C 4.03125 -6.078125 4 -5.421875 3.640625 -4.90625 C 3.28125 -4.375 2.875 -4.34375 2.5625 -4.328125 Z M 2.203125 -4.296875 "/>
</symbol>
</g>
</defs>
<g id="s1_surface1">
<g style="fill:rgb(0%,0%,0%);fill-opacity:1;">
  <use xlink:href="#s1_glyph0-1" x="9.963" y="34.641"/>
</g>
<path style="fill:none;stroke-width:0.398;stroke-linecap:butt;stroke-linejoin:miter;stroke:rgb(0%,0%,0%);stroke-opacity:1;stroke-miterlimit:10;" d="M 0.00184375 -0.00090625 L 41.177625 -0.00090625 " transform="matrix(1,0,0,-1,9.963,38.253)"/>
<g style="fill:rgb(0%,0%,0%);fill-opacity:1;">
  <use xlink:href="#s1_glyph1-1" x="22.478" y="20.195"/>
</g>
<g style="fill:rgb(0%,0%,0%);fill-opacity:1;">
  <use xlink:href="#s1_glyph1-2" x="32.7786" y="20.195"/>
</g>
<g style="fill:rgb(0%,0%,0%);fill-opacity:1;">
  <use xlink:href="#s1_glyph1-2" x="43.067245" y="20.195"/>
</g>
<g style="fill:rgb(0%,0%,0%);fill-opacity:1;">
  <use xlink:href="#s1_glyph1-3" x="22.478" y="34.641"/>
</g>
<g style="fill:rgb(0%,0%,0%);fill-opacity:1;">
  <use xlink:href="#s1_glyph1-4" x="32.7786" y="34.641"/>
</g>
<g style="fill:rgb(0%,0%,0%);fill-opacity:1;">
  <use xlink:href="#s1_glyph1-5" x="43.067245" y="34.641"/>
</g>
<g style="fill:rgb(0%,0%,0%);fill-opacity:1;">
  <use xlink:href="#s1_glyph1-2" x="22.478" y="49.087"/>
</g>
<g style="fill:rgb(0%,0%,0%);fill-opacity:1;">
  <use xlink:href="#s1_glyph1-5" x="32.7786" y="49.087"/>
</g>
<g style="fill:rgb(0%,0%,0%);fill-opacity:1;">
  <use xlink:href="#s1_glyph1-4" x="43.067245" y="49.087"/>
</g>
</g>

</g>

</svg>