<?xml version="1.0" encoding="UTF-8"?>
<svg xmlns="http://www.w3.org/2000/svg" xmlns:xlink="http://www.w3.org/1999/xlink"
     width="471.44" height="787.06"
     viewBox="0 0 471.44 787.06">
<rect width="100%" height="100%" fill="white"/>
<text x="0" y="20.00" font-family="serif" font-size="14" fill="black">433.8 ÷ 96.6 = 4.490683229813665</text>
<g transform="translate(0.00,29.33)">

<defs>
<g>
<symbol overflow="visible" id="s0_glyph0-0">
<path style="stroke:none;" d=""/>
</symbol>
<symbol overflow="visible" id="s0_glyph0-1">
<path style="stroke:none;" d="M 3.65625 -3.171875 L 3.65625 -2.84375 C 3.65625 -0.515625 2.625 -0.0625 2.046875 -0.0625 C 1.875 -0.0625 1.328125 -0.078125 1.0625 -0.421875 C 1.5 -0.421875 1.578125 -0.703125 1.578125 -0.875 C 1.578125 -1.1875 1.34375 -1.328125 1.125 -1.328125 C 0.96875 -1.328125 0.671875 -1.25 0.671875 -0.859375 C 0.671875 -0.1875 1.203125 0.21875 2.046875 0.21875 C 3.34375 0.21875 4.5625 -1.140625 4.5625 -3.28125 C 4.5625 -5.96875 3.40625 -6.640625 2.515625 -6.640625 C 1.96875 -6.640625 1.484375 -6.453125 1.0625 -6.015625 C 0.640625 -5.5625 0.421875 -5.140625 0.421875 -4.390625 C 0.421875 -3.15625 1.296875 -2.171875 2.40625 -2.171875 C 3.015625 -2.171875 3.421875 -2.59375 3.65625 -3.171875 Z M 2.421875 -2.40625 C 2.265625 -2.40625 1.796875 -2.40625 1.5 -3.03125 C 1.3125 -3.40625 1.3125 -3.890625 1.3125 -4.390625 C 1.3125 -4.921875 1.3125 -5.390625 1.53125 -5.765625 C 1.796875 -6.265625 2.171875 -6.390625 2.515625 -6.390625 C 2.984375 -6.390625 3.3125 -6.046875 3.484375 -5.609375 C 3.59375 -5.28125 3.640625 -4.65625 3.640625 -4.203125 C 3.640625 -3.375 3.296875 -2.40625 2.421875 -2.40625 Z M 2.421875 -2.40625 "/>
</symbol>
<symbol overflow="visible" id="s0_glyph0-2">
<path style="stroke:none;" d="M 1.3125 -3.265625 L 1.3125 -3.515625 C 1.3125 -6.03125 2.546875 -6.390625 3.0625 -6.390625 C 3.296875 -6.390625 3.71875 -6.328125 3.9375 -5.984375 C 3.78125 -5.984375 3.390625 -5.984375 3.390625 -5.546875 C 3.390625 -5.234375 3.625 -5.078125 3.84375 -5.078125 C 4 -5.078125 4.3125 -5.171875 4.3125 -5.5625 C 4.3125 -6.15625 3.875 -6.640625 3.046875 -6.640625 C 1.765625 -6.640625 0.421875 -5.359375 0.421875 -3.15625 C 0.421875 -0.484375 1.578125 0.21875 2.5 0.21875 C 3.609375 0.21875 4.5625 -0.71875 4.5625 -2.03125 C 4.5625 -3.296875 3.671875 -4.25 2.5625 -4.25 C 1.890625 -4.25 1.515625 -3.75 1.3125 -3.265625 Z M 2.5 -0.0625 C 1.875 -0.0625 1.578125 -0.65625 1.515625 -0.8125 C 1.328125 -1.28125 1.328125 -2.078125 1.328125 -2.25 C 1.328125 -3.03125 1.65625 -4.03125 2.546875 -4.03125 C 2.71875 -4.03125 3.171875 -4.03125 3.484375 -3.40625 C 3.65625 -3.046875 3.65625 -2.53125 3.65625 -2.046875 C 3.65625 -1.5625 3.65625 -1.0625 3.484375 -0.703125 C 3.1875 -0.109375 2.734375 -0.0625 2.5 -0.0625 Z M 2.5 -0.0625 "/>
</symbol>
<symbol overflow="visible" id="s0_glyph0-3">
<path style="stroke:none;" d="M 2.9375 -1.640625 L 2.9375 -0.78125 C 2.9375 -0.421875 2.90625 -0.3125 2.171875 -0.3125 L 1.96875 -0.3125 L 1.96875 0 C 2.375 -0.03125 2.890625 -0.03125 3.3125 -0.03125 C 3.734375 -0.03125 4.25 -0.03125 4.671875 0 L 4.671875 -0.3125 L 4.453125 -0.3125 C 3.71875 -0.3125 3.703125 -0.421875 3.703125 -0.78125 L 3.703125 -1.640625 L 4.6875 -1.640625 L 4.6875 -1.953125 L 3.703125 -1.953125 L 3.703125 -6.484375 C 3.703125 -6.6875 3.703125 -6.75 3.53125 -6.75 C 3.453125 -6.75 3.421875 -6.75 3.34375 -6.625 L 0.28125 -1.953125 L 0.28125 -1.640625 Z M 2.984375 -1.953125 L 0.5625 -1.953125 L 2.984375 -5.671875 Z M 2.984375 -1.953125 "/>
</symbol>
<symbol overflow="visible" id="s0_glyph0-4">
<path style="stroke:none;" d="M 1.90625 -0.53125 C 1.90625 -0.8125 1.671875 -1.0625 1.390625 -1.0625 C 1.09375 -1.0625 0.859375 -0.8125 0.859375 -0.53125 C 0.859375 -0.234375 1.09375 0 1.390625 0 C 1.671875 0 1.90625 -0.234375 1.90625 -0.53125 Z M 1.90625 -0.53125 "/>
</symbol>
<symbol overflow="visible" id="s0_glyph0-5">
<path style="stroke:none;" d="M 4.578125 -3.1875 C 4.578125 -3.984375 4.53125 -4.78125 4.1875 -5.515625 C 3.734375 -6.484375 2.90625 -6.640625 2.5 -6.640625 C 1.890625 -6.640625 1.171875 -6.375 0.75 -5.453125 C 0.4375 -4.765625 0.390625 -3.984375 0.390625 -3.1875 C 0.390625 -2.4375 0.421875 -1.546875 0.84375 -0.78125 C 1.265625 0.015625 2 0.21875 2.484375 0.21875 C 3.015625 0.21875 3.78125 0.015625 4.21875 -0.9375 C 4.53125 -1.625 4.578125 -2.40625 4.578125 -3.1875 Z M 2.484375 0 C 2.09375 0 1.5 -0.25 1.328125 -1.203125 C 1.21875 -1.796875 1.21875 -2.71875 1.21875 -3.3125 C 1.21875 -3.953125 1.21875 -4.609375 1.296875 -5.140625 C 1.484375 -6.328125 2.234375 -6.421875 2.484375 -6.421875 C 2.8125 -6.421875 3.46875 -6.234375 3.65625 -5.25 C 3.765625 -4.6875 3.765625 -3.9375 3.765625 -3.3125 C 3.765625 -2.5625 3.765625 -1.890625 3.65625 -1.25 C 3.5 -0.296875 2.9375 0 2.484375 0 Z M 2.484375 0 "/>
</symbol>
<symbol overflow="visible" id="s0_glyph0-6">
<path style="stroke:none;" d="M 1.625 -4.5625 C 1.171875 -4.859375 1.125 -5.1875 1.125 -5.359375 C 1.125 -5.96875 1.78125 -6.390625 2.484375 -6.390625 C 3.203125 -6.390625 3.84375 -5.875 3.84375 -5.15625 C 3.84375 -4.578125 3.453125 -4.109375 2.859375 -3.765625 Z M 3.078125 -3.609375 C 3.796875 -3.984375 4.28125 -4.5 4.28125 -5.15625 C 4.28125 -6.078125 3.40625 -6.640625 2.5 -6.640625 C 1.5 -6.640625 0.6875 -5.90625 0.6875 -4.96875 C 0.6875 -4.796875 0.703125 -4.34375 1.125 -3.875 C 1.234375 -3.765625 1.609375 -3.515625 1.859375 -3.34375 C 1.28125 -3.046875 0.421875 -2.5 0.421875 -1.5 C 0.421875 -0.453125 1.4375 0.21875 2.484375 0.21875 C 3.609375 0.21875 4.5625 -0.609375 4.5625 -1.671875 C 4.5625 -2.03125 4.453125 -2.484375 4.0625 -2.90625 C 3.875 -3.109375 3.71875 -3.203125 3.078125 -3.609375 Z M 2.078125 -3.1875 L 3.3125 -2.40625 C 3.59375 -2.21875 4.0625 -1.921875 4.0625 -1.3125 C 4.0625 -0.578125 3.3125 -0.0625 2.5 -0.0625 C 1.640625 -0.0625 0.921875 -0.671875 0.921875 -1.5 C 0.921875 -2.078125 1.234375 -2.71875 2.078125 -3.1875 Z M 2.078125 -3.1875 "/>
</symbol>
<symbol overflow="visible" id="s0_glyph0-7">
<path style="stroke:none;" d="M 2.890625 -3.515625 C 3.703125 -3.78125 4.28125 -4.46875 4.28125 -5.265625 C 4.28125 -6.078125 3.40625 -6.640625 2.453125 -6.640625 C 1.453125 -6.640625 0.6875 -6.046875 0.6875 -5.28125 C 0.6875 -4.953125 0.90625 -4.765625 1.203125 -4.765625 C 1.5 -4.765625 1.703125 -4.984375 1.703125 -5.28125 C 1.703125 -5.765625 1.234375 -5.765625 1.09375 -5.765625 C 1.390625 -6.265625 2.046875 -6.390625 2.40625 -6.390625 C 2.828125 -6.390625 3.375 -6.171875 3.375 -5.28125 C 3.375 -5.15625 3.34375 -4.578125 3.09375 -4.140625 C 2.796875 -3.65625 2.453125 -3.625 2.203125 -3.625 C 2.125 -3.609375 1.890625 -3.59375 1.8125 -3.59375 C 1.734375 -3.578125 1.671875 -3.5625 1.671875 -3.46875 C 1.671875 -3.359375 1.734375 -3.359375 1.90625 -3.359375 L 2.34375 -3.359375 C 3.15625 -3.359375 3.53125 -2.6875 3.53125 -1.703125 C 3.53125 -0.34375 2.84375 -0.0625 2.40625 -0.0625 C 1.96875 -0.0625 1.21875 -0.234375 0.875 -0.8125 C 1.21875 -0.765625 1.53125 -0.984375 1.53125 -1.359375 C 1.53125 -1.71875 1.265625 -1.921875 0.984375 -1.921875 C 0.734375 -1.921875 0.421875 -1.78125 0.421875 -1.34375 C 0.421875 -0.4375 1.34375 0.21875 2.4375 0.21875 C 3.65625 0.21875 4.5625 -0.6875 4.5625 -1.703125 C 4.5625 -2.515625 3.921875 -3.296875 2.890625 -3.515625 Z M 2.890625 -3.515625 "/>
</symbol>
<symbol overflow="visible" id="s0_glyph0-8">
<path style="stroke:none;" d="M 1.265625 -0.765625 L 2.328125 -1.796875 C 3.875 -3.171875 4.46875 -3.703125 4.46875 -4.703125 C 4.46875 -5.84375 3.578125 -6.640625 2.359375 -6.640625 C 1.234375 -6.640625 0.5 -5.71875 0.5 -4.828125 C 0.5 -4.28125 1 -4.28125 1.03125 -4.28125 C 1.203125 -4.28125 1.546875 -4.390625 1.546875 -4.8125 C 1.546875 -5.0625 1.359375 -5.328125 1.015625 -5.328125 C 0.9375 -5.328125 0.921875 -5.328125 0.890625 -5.3125 C 1.109375 -5.96875 1.65625 -6.328125 2.234375 -6.328125 C 3.140625 -6.328125 3.5625 -5.515625 3.5625 -4.703125 C 3.5625 -3.90625 3.078125 -3.125 2.515625 -2.5 L 0.609375 -0.375 C 0.5 -0.265625 0.5 -0.234375 0.5 0 L 4.203125 0 L 4.46875 -1.734375 L 4.234375 -1.734375 C 4.171875 -1.4375 4.109375 -1 4 -0.84375 C 3.9375 -0.765625 3.28125 -0.765625 3.0625 -0.765625 Z M 1.265625 -0.765625 "/>
</symbol>
<symbol overflow="visible" id="s0_glyph0-9">
<path style="stroke:none;" d="M 2.9375 -6.375 C 2.9375 -6.625 2.9375 -6.640625 2.703125 -6.640625 C 2.078125 -6 1.203125 -6 0.890625 -6 L 0.890625 -5.6875 C 1.09375 -5.6875 1.671875 -5.6875 2.1875 -5.953125 L 2.1875 -0.78125 C 2.1875 -0.421875 2.15625 -0.3125 1.265625 -0.3125 L 0.953125 -0.3125 L 0.953125 0 C 1.296875 -0.03125 2.15625 -0.03125 2.5625 -0.03125 C 2.953125 -0.03125 3.828125 -0.03125 4.171875 0 L 4.171875 -0.3125 L 3.859375 -0.3125 C 2.953125 -0.3125 2.9375 -0.421875 2.9375 -0.78125 Z M 2.9375 -6.375 "/>
</symbol>
<symbol overflow="visible" id="s0_glyph0-10">
<path style="stroke:none;" d="M 4.46875 -2 C 4.46875 -3.1875 3.65625 -4.1875 2.578125 -4.1875 C 2.109375 -4.1875 1.671875 -4.03125 1.3125 -3.671875 L 1.3125 -5.625 C 1.515625 -5.5625 1.84375 -5.5 2.15625 -5.5 C 3.390625 -5.5 4.09375 -6.40625 4.09375 -6.53125 C 4.09375 -6.59375 4.0625 -6.640625 3.984375 -6.640625 C 3.984375 -6.640625 3.953125 -6.640625 3.90625 -6.609375 C 3.703125 -6.515625 3.21875 -6.3125 2.546875 -6.3125 C 2.15625 -6.3125 1.6875 -6.390625 1.21875 -6.59375 C 1.140625 -6.625 1.125 -6.625 1.109375 -6.625 C 1 -6.625 1 -6.546875 1 -6.390625 L 1 -3.4375 C 1 -3.265625 1 -3.1875 1.140625 -3.1875 C 1.21875 -3.1875 1.234375 -3.203125 1.28125 -3.265625 C 1.390625 -3.421875 1.75 -3.96875 2.5625 -3.96875 C 3.078125 -3.96875 3.328125 -3.515625 3.40625 -3.328125 C 3.5625 -2.953125 3.59375 -2.578125 3.59375 -2.078125 C 3.59375 -1.71875 3.59375 -1.125 3.34375 -0.703125 C 3.109375 -0.3125 2.734375 -0.0625 2.28125 -0.0625 C 1.5625 -0.0625 0.984375 -0.59375 0.8125 -1.171875 C 0.84375 -1.171875 0.875 -1.15625 0.984375 -1.15625 C 1.3125 -1.15625 1.484375 -1.40625 1.484375 -1.640625 C 1.484375 -1.890625 1.3125 -2.140625 0.984375 -2.140625 C 0.84375 -2.140625 0.5 -2.0625 0.5 -1.609375 C 0.5 -0.75 1.1875 0.21875 2.296875 0.21875 C 3.453125 0.21875 4.46875 -0.734375 4.46875 -2 Z M 4.46875 -2 "/>
</symbol>
<symbol overflow="visible" id="s0_glyph0-11">
<path style="stroke:none;" d="M 4.75 -6.078125 C 4.828125 -6.1875 4.828125 -6.203125 4.828125 -6.421875 L 2.40625 -6.421875 C 1.203125 -6.421875 1.171875 -6.546875 1.140625 -6.734375 L 0.890625 -6.734375 L 0.5625 -4.6875 L 0.8125 -4.6875 C 0.84375 -4.84375 0.921875 -5.46875 1.0625 -5.59375 C 1.125 -5.65625 1.90625 -5.65625 2.03125 -5.65625 L 4.09375 -5.65625 C 3.984375 -5.5 3.203125 -4.40625 2.984375 -4.078125 C 2.078125 -2.734375 1.75 -1.34375 1.75 -0.328125 C 1.75 -0.234375 1.75 0.21875 2.21875 0.21875 C 2.671875 0.21875 2.671875 -0.234375 2.671875 -0.328125 L 2.671875 -0.84375 C 2.671875 -1.390625 2.703125 -1.9375 2.78125 -2.46875 C 2.828125 -2.703125 2.953125 -3.5625 3.40625 -4.171875 Z M 4.75 -6.078125 "/>
</symbol>
<symbol overflow="visible" id="s0_glyph1-0">
<path style="stroke:none;" d=""/>
</symbol>
<symbol overflow="visible" id="s0_glyph1-1">
<path style="stroke:none;" d="M 3.046875 5.578125 C 3.046875 4.171875 2.796875 2.15625 1.484375 0.484375 C 1.390625 0.359375 0.734375 -0.40625 0.5625 -0.40625 C 0.515625 -0.40625 0.4375 -0.375 0.4375 -0.296875 C 0.4375 -0.265625 0.453125 -0.234375 0.5 -0.203125 C 0.984375 0.3125 1.625 1.125 2.03125 2.71875 C 2.265625 3.625 2.359375 4.640625 2.359375 5.578125 C 2.359375 6.578125 2.265625 7.59375 2 8.578125 C 1.625 9.96875 1.03125 10.765625 0.53125 11.328125 C 0.4375 11.421875 0.4375 11.4375 0.4375 11.453125 C 0.4375 11.53125 0.515625 11.546875 0.5625 11.546875 C 0.703125 11.546875 1.25 10.953125 1.375 10.8125 C 2.390625 9.59375 3.046875 7.8125 3.046875 5.578125 Z M 3.046875 5.578125 "/>
</symbol>
</g>
</defs>
<g id="s0_surface1">
<g style="fill:rgb(0%,0%,0%);fill-opacity:1;">
  <use xlink:href="#s0_glyph0-1" x="13.948" y="31.881"/>
  <use xlink:href="#s0_glyph0-2" x="18.9293" y="31.881"/>
  <use xlink:href="#s0_glyph0-2" x="23.9106" y="31.881"/>
</g>
<g style="fill:rgb(0%,0%,0%);fill-opacity:1;">
  <use xlink:href="#s0_glyph0-3" x="50.062" y="19.527"/>
  <use xlink:href="#s0_glyph0-4" x="55.0433" y="19.527"/>
  <use xlink:href="#s0_glyph0-3" x="57.81091" y="19.527"/>
  <use xlink:href="#s0_glyph0-1" x="62.79221" y="19.527"/>
  <use xlink:href="#s0_glyph0-5" x="67.77351" y="19.527"/>
  <use xlink:href="#s0_glyph0-2" x="72.75481" y="19.527"/>
  <use xlink:href="#s0_glyph0-6" x="77.73611" y="19.527"/>
  <use xlink:href="#s0_glyph0-7" x="82.71741" y="19.527"/>
  <use xlink:href="#s0_glyph0-8" x="87.69871" y="19.527"/>
  <use xlink:href="#s0_glyph0-8" x="92.68001" y="19.527"/>
  <use xlink:href="#s0_glyph0-1" x="97.66131" y="19.527"/>
  <use xlink:href="#s0_glyph0-6" x="102.64261" y="19.527"/>
  <use xlink:href="#s0_glyph0-9" x="107.62391" y="19.527"/>
  <use xlink:href="#s0_glyph0-7" x="112.60521" y="19.527"/>
  <use xlink:href="#s0_glyph0-2" x="117.58651" y="19.527"/>
  <use xlink:href="#s0_glyph0-2" x="122.56781" y="19.527"/>
  <use xlink:href="#s0_glyph0-3" x="127.54911" y="19.527"/>
  <use xlink:href="#s0_glyph0-10" x="132.53041" y="19.527"/>
  <use xlink:href="#s0_glyph0-1" x="137.51171" y="19.527"/>
  <use xlink:href="#s0_glyph0-2" x="142.49301" y="19.527"/>
  <use xlink:href="#s0_glyph0-8" x="147.47431" y="19.527"/>
  <use xlink:href="#s0_glyph0-11" x="152.45561" y="19.527"/>
  <use xlink:href="#s0_glyph0-7" x="157.43691" y="19.527"/>
  <use xlink:href="#s0_glyph0-8" x="162.41821" y="19.527"/>
  <use xlink:href="#s0_glyph0-1" x="167.39951" y="19.527"/>
  <use xlink:href="#s0_glyph0-9" x="172.38081" y="19.527"/>
  <use xlink:href="#s0_glyph0-1" x="177.36211" y="19.527"/>
  <use xlink:href="#s0_glyph0-8" x="182.34341" y="19.527"/>
  <use xlink:href="#s0_glyph0-10" x="187.32471" y="19.527"/>
  <use xlink:href="#s0_glyph0-3" x="192.30601" y="19.527"/>
  <use xlink:href="#s0_glyph0-2" x="197.28731" y="19.527"/>
  <use xlink:href="#s0_glyph0-10" x="202.26861" y="19.527"/>
  <use xlink:href="#s0_glyph0-6" x="207.24991" y="19.527"/>
  <use xlink:href="#s0_glyph0-7" x="212.23121" y="19.527"/>
  <use xlink:href="#s0_glyph0-6" x="217.21251" y="19.527"/>
  <use xlink:href="#s0_glyph0-10" x="222.19381" y="19.527"/>
  <use xlink:href="#s0_glyph0-5" x="227.17511" y="19.527"/>
  <use xlink:href="#s0_glyph0-1" x="232.15641" y="19.527"/>
  <use xlink:href="#s0_glyph0-7" x="237.13771" y="19.527"/>
  <use xlink:href="#s0_glyph0-9" x="242.11901" y="19.527"/>
  <use xlink:href="#s0_glyph0-2" x="247.10031" y="19.527"/>
  <use xlink:href="#s0_glyph0-11" x="252.08161" y="19.527"/>
  <use xlink:href="#s0_glyph0-11" x="257.06291" y="19.527"/>
  <use xlink:href="#s0_glyph0-5" x="262.04421" y="19.527"/>
  <use xlink:href="#s0_glyph0-9" x="267.02551" y="19.527"/>
  <use xlink:href="#s0_glyph0-6" x="272.00681" y="19.527"/>
  <use xlink:href="#s0_glyph0-2" x="276.98811" y="19.527"/>
  <use xlink:href="#s0_glyph0-7" x="281.96941" y="19.527"/>
  <use xlink:href="#s0_glyph0-7" x="286.95071" y="19.527"/>
  <use xlink:href="#s0_glyph0-10" x="291.93201" y="19.527"/>
  <use xlink:href="#s0_glyph0-3" x="296.91331" y="19.527"/>
  <use xlink:href="#s0_glyph0-5" x="301.89461" y="19.527"/>
  <use xlink:href="#s0_glyph0-7" x="306.87591" y="19.527"/>
  <use xlink:href="#s0_glyph0-11" x="311.85721" y="19.527"/>
  <use xlink:href="#s0_glyph0-8" x="316.83851" y="19.527"/>
  <use xlink:href="#s0_glyph0-2" x="321.81981" y="19.527"/>
  <use xlink:href="#s0_glyph0-11" x="326.80111" y="19.527"/>
  <use xlink:href="#s0_glyph0-5" x="331.78241" y="19.527"/>
</g>
<path style="fill:none;stroke-width:0.398;stroke-linecap:butt;stroke-linejoin:miter;stroke:rgb(0%,0%,0%);stroke-opacity:1;stroke-miterlimit:10;" d="M -0.00121875 0.0005 L 307.873781 0.0005 " transform="matrix(1,0,0,-1,30.552,23.313)"/>
<g style="fill:rgb(0%,0%,0%);fill-opacity:1;">
  <use xlink:href="#s0_glyph1-1" x="30.552" y="23.811"/>
</g>
<g style="fill:rgb(0%,0%,0%);fill-opacity:1;">
  <use xlink:href="#s0_glyph0-3" x="35.118" y="31.881"/>
  <use xlink:href="#s0_glyph0-7" x="40.0993" y="31.881"/>
  <use xlink:href="#s0_glyph0-7" x="45.0806" y="31.881"/>
  <use xlink:href="#s0_glyph0-6" x="50.0619" y="31.881"/>
  <use xlink:href="#s0_glyph0-4" x="55.0432" y="31.881"/>
  <use xlink:href="#s0_glyph0-5" x="57.81081" y="31.881"/>
  <use xlink:href="#s0_glyph0-5" x="62.79211" y="31.881"/>
  <use xlink:href="#s0_glyph0-5" x="67.77341" y="31.881"/>
  <use xlink:href="#s0_glyph0-5" x="72.75471" y="31.881"/>
  <use xlink:href="#s0_glyph0-5" x="77.73601" y="31.881"/>
  <use xlink:href="#s0_glyph0-5" x="82.71731" y="31.881"/>
  <use xlink:href="#s0_glyph0-5" x="87.69861" y="31.881"/>
  <use xlink:href="#s0_glyph0-5" x="92.67991" y="31.881"/>
  <use xlink:href="#s0_glyph0-5" x="97.66121" y="31.881"/>
  <use xlink:href="#s0_glyph0-5" x="102.64251" y="31.881"/>
  <use xlink:href="#s0_glyph0-5" x="107.62381" y="31.881"/>
  <use xlink:href="#s0_glyph0-5" x="112.60511" y="31.881"/>
  <use xlink:href="#s0_glyph0-5" x="117.58641" y="31.881"/>
  <use xlink:href="#s0_glyph0-5" x="122.56771" y="31.881"/>
  <use xlink:href="#s0_glyph0-5" x="127.54901" y="31.881"/>
  <use xlink:href="#s0_glyph0-5" x="132.53031" y="31.881"/>
  <use xlink:href="#s0_glyph0-5" x="137.51161" y="31.881"/>
  <use xlink:href="#s0_glyph0-5" x="142.49291" y="31.881"/>
  <use xlink:href="#s0_glyph0-5" x="147.47421" y="31.881"/>
  <use xlink:href="#s0_glyph0-5" x="152.45551" y="31.881"/>
  <use xlink:href="#s0_glyph0-5" x="157.43681" y="31.881"/>
  <use xlink:href="#s0_glyph0-5" x="162.41811" y="31.881"/>
  <use xlink:href="#s0_glyph0-5" x="167.39941" y="31.881"/>
  <use xlink:href="#s0_glyph0-5" x="172.38071" y="31.881"/>
  <use xlink:href="#s0_glyph0-5" x="177.36201" y="31.881"/>
  <use xlink:href="#s0_glyph0-5" x="182.34331" y="31.881"/>
  <use xlink:href="#s0_glyph0-5" x="187.32461" y="31.881"/>
  <use xlink:href="#s0_glyph0-5" x="192.30591" y="31.881"/>
  <use xlink:href="#s0_glyph0-5" x="197.28721" y="31.881"/>
  <use xlink:href="#s0_glyph0-5" x="202.26851" y="31.881"/>
  <use xlink:href="#s0_glyph0-5" x="207.24981" y="31.881"/>
  <use xlink:href="#s0_glyph0-5" x="212.23111" y="31.881"/>
  <use xlink:href="#s0_glyph0-5" x="217.21241" y="31.881"/>
  <use xlink:href="#s0_glyph0-5" x="222.19371" y="31.881"/>
  <use xlink:href="#s0_glyph0-5" x="227.17501" y="31.881"/>
  <use xlink:href="#s0_glyph0-5" x="232.15631" y="31.881"/>
  <use xlink:href="#s0_glyph0-5" x="237.13761" y="31.881"/>
  <use xlink:href="#s0_glyph0-5" x="242.11891" y="31.881"/>
  <use xlink:href="#s0_glyph0-5" x="247.10021" y="31.881"/>
  <use xlink:href="#s0_glyph0-5" x="252.08151" y="31.881"/>
  <use xlink:href="#s0_glyph0-5" x="257.06281" y="31.881"/>
  <use xlink:href="#s0_glyph0-5" x="262.04411" y="31.881"/>
  <use xlink:href="#s0_glyph0-5" x="267.02541" y="31.881"/>
  <use xlink:href="#s0_glyph0-5" x="272.00671" y="31.881"/>
  <use xlink:href="#s0_glyph0-5" x="276.98801" y="31.881"/>
  <use xlink:href="#s0_glyph0-5" x="281.96931" y="31.881"/>
  <use xlink:href="#s0_glyph0-5" x="286.95061" y="31.881"/>
  <use xlink:href="#s0_glyph0-5" x="291.93191" y="31.881"/>
  <use xlink:href="#s0_glyph0-5" x="296.91321" y="31.881"/>
  <use xlink:href="#s0_glyph0-5" x="301.89451" y="31.881"/>
  <use xlink:href="#s0_glyph0-5" x="306.87581" y="31.881"/>
  <use xlink:href="#s0_glyph0-5" x="311.85711" y="31.881"/>
  <use xlink:href="#s0_glyph0-5" x="316.83841" y="31.881"/>
  <use xlink:href="#s0_glyph0-5" x="321.81971" y="31.881"/>
  <use xlink:href="#s0_glyph0-5" x="326.80101" y="31.881"/>
  <use xlink:href="#s0_glyph0-5" x="331.78231" y="31.881"/>
</g>
<g style="fill:rgb(0%,0%,0%);fill-opacity:1;">
  <use xlink:href="#s0_glyph0-7" x="35.118" y="43.836"/>
  <use xlink:href="#s0_glyph0-6" x="40.0993" y="43.836"/>
  <use xlink:href="#s0_glyph0-2" x="45.0806" y="43.836"/>
  <use xlink:href="#s0_glyph0-3" x="50.0619" y="43.836"/>
</g>
<path style="fill:none;stroke-width:0.567;stroke-linecap:butt;stroke-linejoin:miter;stroke:rgb(0%,0%,0%);stroke-opacity:1;stroke-miterlimit:10;" d="M -0.0008125 -0.00103125 L 301.647625 -0.00103125 " transform="matrix(1,0,0,-1,35.118,47.706)"/>
<g style="fill:rgb(0%,0%,0%);fill-opacity:1;">
  <use xlink:href="#s0_glyph0-3" x="40.1" y="56.358"/>
  <use xlink:href="#s0_glyph0-11" x="45.0813" y="56.358"/>
  <use xlink:href="#s0_glyph0-3" x="50.0626" y="56.358"/>
</g>
<g style="fill:rgb(0%,0%,0%);fill-opacity:1;">
  <use xlink:href="#s0_glyph0-5" x="57.813503" y="56.358"/>
</g>
<g style="fill:rgb(0%,0%,0%);fill-opacity:1;">
  <use xlink:href="#s0_glyph0-7" x="40.1" y="68.313"/>
  <use xlink:href="#s0_glyph0-6" x="45.0813" y="68.313"/>
  <use xlink:href="#s0_glyph0-2" x="50.0626" y="68.313"/>
</g>
<g style="fill:rgb(0%,0%,0%);fill-opacity:1;">
  <use xlink:href="#s0_glyph0-3" x="57.813503" y="68.313"/>
</g>
<path style="fill:none;stroke-width:0.567;stroke-linecap:butt;stroke-linejoin:miter;stroke:rgb(0%,0%,0%);stroke-opacity:1;stroke-miterlimit:10;" d="M -0.0008125 -0.00059375 L 301.647625 -0.00059375 " transform="matrix(1,0,0,-1,35.118,72.183)"/>
<g style="fill:rgb(0%,0%,0%);fill-opacity:1;">
  <use xlink:href="#s0_glyph0-6" x="45.081" y="80.835"/>
  <use xlink:href="#s0_glyph0-11" x="50.0623" y="80.835"/>
</g>
<g style="fill:rgb(0%,0%,0%);fill-opacity:1;">
  <use xlink:href="#s0_glyph0-2" x="57.813203" y="80.835"/>
  <use xlink:href="#s0_glyph0-5" x="62.794503" y="80.835"/>
</g>
<g style="fill:rgb(0%,0%,0%);fill-opacity:1;">
  <use xlink:href="#s0_glyph0-6" x="45.081" y="92.79"/>
  <use xlink:href="#s0_glyph0-2" x="50.0623" y="92.79"/>
</g>
<g style="fill:rgb(0%,0%,0%);fill-opacity:1;">
  <use xlink:href="#s0_glyph0-1" x="57.813203" y="92.79"/>
  <use xlink:href="#s0_glyph0-3" x="62.794503" y="92.79"/>
</g>
<path style="fill:none;stroke-width:0.567;stroke-linecap:butt;stroke-linejoin:miter;stroke:rgb(0%,0%,0%);stroke-opacity:1;stroke-miterlimit:10;" d="M -0.0008125 -0.00015625 L 301.647625 -0.00015625 " transform="matrix(1,0,0,-1,35.118,96.66)"/>
<g style="fill:rgb(0%,0%,0%);fill-opacity:1;">
  <use xlink:href="#s0_glyph0-2" x="57.811" y="105.312"/>
  <use xlink:href="#s0_glyph0-2" x="62.7923" y="105.312"/>
  <use xlink:href="#s0_glyph0-5" x="67.7736" y="105.312"/>
  <use xlink:href="#s0_glyph0-5" x="72.7549" y="105.312"/>
</g>
<g style="fill:rgb(0%,0%,0%);fill-opacity:1;">
  <use xlink:href="#s0_glyph0-10" x="57.811" y="117.268"/>
  <use xlink:href="#s0_glyph0-11" x="62.7923" y="117.268"/>
  <use xlink:href="#s0_glyph0-1" x="67.7736" y="117.268"/>
  <use xlink:href="#s0_glyph0-2" x="72.7549" y="117.268"/>
</g>
<path style="fill:none;stroke-width:0.567;stroke-linecap:butt;stroke-linejoin:miter;stroke:rgb(0%,0%,0%);stroke-opacity:1;stroke-miterlimit:10;" d="M -0.0008125 0.00128125 L 301.647625 0.00128125 " transform="matrix(1,0,0,-1,35.118,121.138)"/>
<g style="fill:rgb(0%,0%,0%);fill-opacity:1;">
  <use xlink:href="#s0_glyph0-6" x="62.793" y="129.79"/>
  <use xlink:href="#s0_glyph0-5" x="67.7743" y="129.79"/>
  <use xlink:href="#s0_glyph0-3" x="72.7556" y="129.79"/>
  <use xlink:href="#s0_glyph0-5" x="77.7369" y="129.79"/>
</g>
<g style="fill:rgb(0%,0%,0%);fill-opacity:1;">
  <use xlink:href="#s0_glyph0-11" x="62.793" y="141.745"/>
  <use xlink:href="#s0_glyph0-11" x="67.7743" y="141.745"/>
  <use xlink:href="#s0_glyph0-8" x="72.7556" y="141.745"/>
  <use xlink:href="#s0_glyph0-6" x="77.7369" y="141.745"/>
</g>
<path style="fill:none;stroke-width:0.567;stroke-linecap:butt;stroke-linejoin:miter;stroke:rgb(0%,0%,0%);stroke-opacity:1;stroke-miterlimit:10;" d="M -0.0008125 0.00171875 L 301.647625 0.00171875 " transform="matrix(1,0,0,-1,35.118,145.615)"/>
<g style="fill:rgb(0%,0%,0%);fill-opacity:1;">
  <use xlink:href="#s0_glyph0-7" x="67.774" y="154.267"/>
  <use xlink:href="#s0_glyph0-9" x="72.7553" y="154.267"/>
  <use xlink:href="#s0_glyph0-8" x="77.7366" y="154.267"/>
  <use xlink:href="#s0_glyph0-5" x="82.7179" y="154.267"/>
</g>
<g style="fill:rgb(0%,0%,0%);fill-opacity:1;">
  <use xlink:href="#s0_glyph0-8" x="67.774" y="166.222"/>
  <use xlink:href="#s0_glyph0-6" x="72.7553" y="166.222"/>
  <use xlink:href="#s0_glyph0-1" x="77.7366" y="166.222"/>
  <use xlink:href="#s0_glyph0-6" x="82.7179" y="166.222"/>
</g>
<path style="fill:none;stroke-width:0.567;stroke-linecap:butt;stroke-linejoin:miter;stroke:rgb(0%,0%,0%);stroke-opacity:1;stroke-miterlimit:10;" d="M -0.0008125 -0.00175 L 301.647625 -0.00175 " transform="matrix(1,0,0,-1,35.118,170.092)"/>
<g style="fill:rgb(0%,0%,0%);fill-opacity:1;">
  <use xlink:href="#s0_glyph0-8" x="72.755" y="178.744"/>
  <use xlink:href="#s0_glyph0-8" x="77.7363" y="178.744"/>
  <use xlink:href="#s0_glyph0-8" x="82.7176" y="178.744"/>
  <use xlink:href="#s0_glyph0-5" x="87.6989" y="178.744"/>
</g>
<g style="fill:rgb(0%,0%,0%);fill-opacity:1;">
  <use xlink:href="#s0_glyph0-9" x="72.755" y="190.699"/>
  <use xlink:href="#s0_glyph0-1" x="77.7363" y="190.699"/>
  <use xlink:href="#s0_glyph0-7" x="82.7176" y="190.699"/>
  <use xlink:href="#s0_glyph0-8" x="87.6989" y="190.699"/>
</g>
<path style="fill:none;stroke-width:0.567;stroke-linecap:butt;stroke-linejoin:miter;stroke:rgb(0%,0%,0%);stroke-opacity:1;stroke-miterlimit:10;" d="M -0.0008125 -0.0013125 L 301.647625 -0.0013125 " transform="matrix(1,0,0,-1,35.118,194.569)"/>
<g style="fill:rgb(0%,0%,0%);fill-opacity:1;">
  <use xlink:href="#s0_glyph0-8" x="77.737" y="203.221"/>
  <use xlink:href="#s0_glyph0-6" x="82.7183" y="203.221"/>
  <use xlink:href="#s0_glyph0-6" x="87.6996" y="203.221"/>
  <use xlink:href="#s0_glyph0-5" x="92.6809" y="203.221"/>
</g>
<g style="fill:rgb(0%,0%,0%);fill-opacity:1;">
  <use xlink:href="#s0_glyph0-9" x="77.737" y="215.177"/>
  <use xlink:href="#s0_glyph0-1" x="82.7183" y="215.177"/>
  <use xlink:href="#s0_glyph0-7" x="87.6996" y="215.177"/>
  <use xlink:href="#s0_glyph0-8" x="92.6809" y="215.177"/>
</g>
<path style="fill:none;stroke-width:0.567;stroke-linecap:butt;stroke-linejoin:miter;stroke:rgb(0%,0%,0%);stroke-opacity:1;stroke-miterlimit:10;" d="M -0.0008125 0.000125 L 301.647625 0.000125 " transform="matrix(1,0,0,-1,35.118,219.047)"/>
<g style="fill:rgb(0%,0%,0%);fill-opacity:1;">
  <use xlink:href="#s0_glyph0-1" x="82.718" y="227.699"/>
  <use xlink:href="#s0_glyph0-3" x="87.6993" y="227.699"/>
  <use xlink:href="#s0_glyph0-6" x="92.6806" y="227.699"/>
  <use xlink:href="#s0_glyph0-5" x="97.6619" y="227.699"/>
</g>
<g style="fill:rgb(0%,0%,0%);fill-opacity:1;">
  <use xlink:href="#s0_glyph0-6" x="82.718" y="239.654"/>
  <use xlink:href="#s0_glyph0-2" x="87.6993" y="239.654"/>
  <use xlink:href="#s0_glyph0-1" x="92.6806" y="239.654"/>
  <use xlink:href="#s0_glyph0-3" x="97.6619" y="239.654"/>
</g>
<path style="fill:none;stroke-width:0.567;stroke-linecap:butt;stroke-linejoin:miter;stroke:rgb(0%,0%,0%);stroke-opacity:1;stroke-miterlimit:10;" d="M -0.0008125 0.0005625 L 301.647625 0.0005625 " transform="matrix(1,0,0,-1,35.118,243.524)"/>
<g style="fill:rgb(0%,0%,0%);fill-opacity:1;">
  <use xlink:href="#s0_glyph0-11" x="87.699" y="252.176"/>
  <use xlink:href="#s0_glyph0-6" x="92.6803" y="252.176"/>
  <use xlink:href="#s0_glyph0-2" x="97.6616" y="252.176"/>
  <use xlink:href="#s0_glyph0-5" x="102.6429" y="252.176"/>
</g>
<g style="fill:rgb(0%,0%,0%);fill-opacity:1;">
  <use xlink:href="#s0_glyph0-11" x="87.699" y="264.131"/>
  <use xlink:href="#s0_glyph0-11" x="92.6803" y="264.131"/>
  <use xlink:href="#s0_glyph0-8" x="97.6616" y="264.131"/>
  <use xlink:href="#s0_glyph0-6" x="102.6429" y="264.131"/>
</g>
<path style="fill:none;stroke-width:0.567;stroke-linecap:butt;stroke-linejoin:miter;stroke:rgb(0%,0%,0%);stroke-opacity:1;stroke-miterlimit:10;" d="M -0.0008125 0.001 L 301.647625 0.001 " transform="matrix(1,0,0,-1,35.118,268.001)"/>
<g style="fill:rgb(0%,0%,0%);fill-opacity:1;">
  <use xlink:href="#s0_glyph0-9" x="92.681" y="276.653"/>
  <use xlink:href="#s0_glyph0-7" x="97.6623" y="276.653"/>
  <use xlink:href="#s0_glyph0-8" x="102.6436" y="276.653"/>
  <use xlink:href="#s0_glyph0-5" x="107.6249" y="276.653"/>
</g>
<g style="fill:rgb(0%,0%,0%);fill-opacity:1;">
  <use xlink:href="#s0_glyph0-1" x="97.662" y="288.608"/>
  <use xlink:href="#s0_glyph0-2" x="102.6433" y="288.608"/>
  <use xlink:href="#s0_glyph0-2" x="107.6246" y="288.608"/>
</g>
<path style="fill:none;stroke-width:0.567;stroke-linecap:butt;stroke-linejoin:miter;stroke:rgb(0%,0%,0%);stroke-opacity:1;stroke-miterlimit:10;" d="M -0.0008125 0.0014375 L 301.647625 0.0014375 " transform="matrix(1,0,0,-1,35.118,292.478)"/>
<g style="fill:rgb(0%,0%,0%);fill-opacity:1;">
  <use xlink:href="#s0_glyph0-7" x="97.662" y="301.13"/>
  <use xlink:href="#s0_glyph0-10" x="102.6433" y="301.13"/>
  <use xlink:href="#s0_glyph0-3" x="107.6246" y="301.13"/>
  <use xlink:href="#s0_glyph0-5" x="112.6059" y="301.13"/>
</g>
<g style="fill:rgb(0%,0%,0%);fill-opacity:1;">
  <use xlink:href="#s0_glyph0-8" x="97.662" y="313.086"/>
  <use xlink:href="#s0_glyph0-6" x="102.6433" y="313.086"/>
  <use xlink:href="#s0_glyph0-1" x="107.6246" y="313.086"/>
  <use xlink:href="#s0_glyph0-6" x="112.6059" y="313.086"/>
</g>
<path style="fill:none;stroke-width:0.567;stroke-linecap:butt;stroke-linejoin:miter;stroke:rgb(0%,0%,0%);stroke-opacity:1;stroke-miterlimit:10;" d="M -0.0008125 -0.00103125 L 301.647625 -0.00103125 " transform="matrix(1,0,0,-1,35.118,316.956)"/>
<g style="fill:rgb(0%,0%,0%);fill-opacity:1;">
  <use xlink:href="#s0_glyph0-2" x="102.643" y="325.608"/>
  <use xlink:href="#s0_glyph0-3" x="107.6243" y="325.608"/>
  <use xlink:href="#s0_glyph0-8" x="112.6056" y="325.608"/>
  <use xlink:href="#s0_glyph0-5" x="117.5869" y="325.608"/>
</g>
<g style="fill:rgb(0%,0%,0%);fill-opacity:1;">
  <use xlink:href="#s0_glyph0-10" x="102.643" y="337.563"/>
  <use xlink:href="#s0_glyph0-11" x="107.6243" y="337.563"/>
  <use xlink:href="#s0_glyph0-1" x="112.6056" y="337.563"/>
  <use xlink:href="#s0_glyph0-2" x="117.5869" y="337.563"/>
</g>
<path style="fill:none;stroke-width:0.567;stroke-linecap:butt;stroke-linejoin:miter;stroke:rgb(0%,0%,0%);stroke-opacity:1;stroke-miterlimit:10;" d="M -0.0008125 -0.00059375 L 301.647625 -0.00059375 " transform="matrix(1,0,0,-1,35.118,341.433)"/>
<g style="fill:rgb(0%,0%,0%);fill-opacity:1;">
  <use xlink:href="#s0_glyph0-2" x="107.625" y="350.085"/>
  <use xlink:href="#s0_glyph0-8" x="112.6063" y="350.085"/>
  <use xlink:href="#s0_glyph0-3" x="117.5876" y="350.085"/>
  <use xlink:href="#s0_glyph0-5" x="122.5689" y="350.085"/>
</g>
<g style="fill:rgb(0%,0%,0%);fill-opacity:1;">
  <use xlink:href="#s0_glyph0-10" x="107.625" y="362.04"/>
  <use xlink:href="#s0_glyph0-11" x="112.6063" y="362.04"/>
  <use xlink:href="#s0_glyph0-1" x="117.5876" y="362.04"/>
  <use xlink:href="#s0_glyph0-2" x="122.5689" y="362.04"/>
</g>
<path style="fill:none;stroke-width:0.567;stroke-linecap:butt;stroke-linejoin:miter;stroke:rgb(0%,0%,0%);stroke-opacity:1;stroke-miterlimit:10;" d="M -0.0008125 -0.00015625 L 301.647625 -0.00015625 " transform="matrix(1,0,0,-1,35.118,365.91)"/>
<g style="fill:rgb(0%,0%,0%);fill-opacity:1;">
  <use xlink:href="#s0_glyph0-3" x="112.606" y="374.562"/>
  <use xlink:href="#s0_glyph0-3" x="117.5873" y="374.562"/>
  <use xlink:href="#s0_glyph0-3" x="122.5686" y="374.562"/>
  <use xlink:href="#s0_glyph0-5" x="127.5499" y="374.562"/>
</g>
<g style="fill:rgb(0%,0%,0%);fill-opacity:1;">
  <use xlink:href="#s0_glyph0-7" x="112.606" y="386.517"/>
  <use xlink:href="#s0_glyph0-6" x="117.5873" y="386.517"/>
  <use xlink:href="#s0_glyph0-2" x="122.5686" y="386.517"/>
  <use xlink:href="#s0_glyph0-3" x="127.5499" y="386.517"/>
</g>
<path style="fill:none;stroke-width:0.567;stroke-linecap:butt;stroke-linejoin:miter;stroke:rgb(0%,0%,0%);stroke-opacity:1;stroke-miterlimit:10;" d="M -0.0008125 0.00028125 L 301.647625 0.00028125 " transform="matrix(1,0,0,-1,35.118,390.387)"/>
<g style="fill:rgb(0%,0%,0%);fill-opacity:1;">
  <use xlink:href="#s0_glyph0-10" x="117.587" y="399.039"/>
  <use xlink:href="#s0_glyph0-11" x="122.5683" y="399.039"/>
  <use xlink:href="#s0_glyph0-2" x="127.5496" y="399.039"/>
  <use xlink:href="#s0_glyph0-5" x="132.5309" y="399.039"/>
</g>
<g style="fill:rgb(0%,0%,0%);fill-opacity:1;">
  <use xlink:href="#s0_glyph0-3" x="117.587" y="410.995"/>
  <use xlink:href="#s0_glyph0-6" x="122.5683" y="410.995"/>
  <use xlink:href="#s0_glyph0-7" x="127.5496" y="410.995"/>
  <use xlink:href="#s0_glyph0-5" x="132.5309" y="410.995"/>
</g>
<path style="fill:none;stroke-width:0.567;stroke-linecap:butt;stroke-linejoin:miter;stroke:rgb(0%,0%,0%);stroke-opacity:1;stroke-miterlimit:10;" d="M -0.0008125 0.00171875 L 301.647625 0.00171875 " transform="matrix(1,0,0,-1,35.118,414.865)"/>
<g style="fill:rgb(0%,0%,0%);fill-opacity:1;">
  <use xlink:href="#s0_glyph0-1" x="122.569" y="423.517"/>
  <use xlink:href="#s0_glyph0-7" x="127.5503" y="423.517"/>
  <use xlink:href="#s0_glyph0-5" x="132.5316" y="423.517"/>
  <use xlink:href="#s0_glyph0-5" x="137.5129" y="423.517"/>
</g>
<g style="fill:rgb(0%,0%,0%);fill-opacity:1;">
  <use xlink:href="#s0_glyph0-6" x="122.569" y="435.472"/>
  <use xlink:href="#s0_glyph0-2" x="127.5503" y="435.472"/>
  <use xlink:href="#s0_glyph0-1" x="132.5316" y="435.472"/>
  <use xlink:href="#s0_glyph0-3" x="137.5129" y="435.472"/>
</g>
<path style="fill:none;stroke-width:0.567;stroke-linecap:butt;stroke-linejoin:miter;stroke:rgb(0%,0%,0%);stroke-opacity:1;stroke-miterlimit:10;" d="M -0.0008125 -0.00175 L 301.647625 -0.00175 " transform="matrix(1,0,0,-1,35.118,439.342)"/>
<g style="fill:rgb(0%,0%,0%);fill-opacity:1;">
  <use xlink:href="#s0_glyph0-2" x="127.55" y="447.994"/>
  <use xlink:href="#s0_glyph0-5" x="132.5313" y="447.994"/>
  <use xlink:href="#s0_glyph0-2" x="137.5126" y="447.994"/>
  <use xlink:href="#s0_glyph0-5" x="142.4939" y="447.994"/>
</g>
<g style="fill:rgb(0%,0%,0%);fill-opacity:1;">
  <use xlink:href="#s0_glyph0-10" x="127.55" y="459.949"/>
  <use xlink:href="#s0_glyph0-11" x="132.5313" y="459.949"/>
  <use xlink:href="#s0_glyph0-1" x="137.5126" y="459.949"/>
  <use xlink:href="#s0_glyph0-2" x="142.4939" y="459.949"/>
</g>
<path style="fill:none;stroke-width:0.567;stroke-linecap:butt;stroke-linejoin:miter;stroke:rgb(0%,0%,0%);stroke-opacity:1;stroke-miterlimit:10;" d="M -0.0008125 -0.0013125 L 301.647625 -0.0013125 " transform="matrix(1,0,0,-1,35.118,463.819)"/>
<g style="fill:rgb(0%,0%,0%);fill-opacity:1;">
  <use xlink:href="#s0_glyph0-8" x="132.531" y="472.471"/>
  <use xlink:href="#s0_glyph0-2" x="137.5123" y="472.471"/>
  <use xlink:href="#s0_glyph0-3" x="142.4936" y="472.471"/>
  <use xlink:href="#s0_glyph0-5" x="147.4749" y="472.471"/>
</g>
<g style="fill:rgb(0%,0%,0%);fill-opacity:1;">
  <use xlink:href="#s0_glyph0-9" x="132.531" y="484.426"/>
  <use xlink:href="#s0_glyph0-1" x="137.5123" y="484.426"/>
  <use xlink:href="#s0_glyph0-7" x="142.4936" y="484.426"/>
  <use xlink:href="#s0_glyph0-8" x="147.4749" y="484.426"/>
</g>
<path style="fill:none;stroke-width:0.567;stroke-linecap:butt;stroke-linejoin:miter;stroke:rgb(0%,0%,0%);stroke-opacity:1;stroke-miterlimit:10;" d="M -0.0008125 -0.000875 L 301.647625 -0.000875 " transform="matrix(1,0,0,-1,35.118,488.296)"/>
<g style="fill:rgb(0%,0%,0%);fill-opacity:1;">
  <use xlink:href="#s0_glyph0-11" x="137.513" y="496.948"/>
  <use xlink:href="#s0_glyph0-5" x="142.4943" y="496.948"/>
  <use xlink:href="#s0_glyph0-6" x="147.4756" y="496.948"/>
  <use xlink:href="#s0_glyph0-5" x="152.4569" y="496.948"/>
</g>
<g style="fill:rgb(0%,0%,0%);fill-opacity:1;">
  <use xlink:href="#s0_glyph0-2" x="137.513" y="508.904"/>
  <use xlink:href="#s0_glyph0-11" x="142.4943" y="508.904"/>
  <use xlink:href="#s0_glyph0-2" x="147.4756" y="508.904"/>
  <use xlink:href="#s0_glyph0-8" x="152.4569" y="508.904"/>
</g>
<path style="fill:none;stroke-width:0.567;stroke-linecap:butt;stroke-linejoin:miter;stroke:rgb(0%,0%,0%);stroke-opacity:1;stroke-miterlimit:10;" d="M -0.0008125 0.0005625 L 301.647625 0.0005625 " transform="matrix(1,0,0,-1,35.118,512.774)"/>
<g style="fill:rgb(0%,0%,0%);fill-opacity:1;">
  <use xlink:href="#s0_glyph0-7" x="142.494" y="521.426"/>
  <use xlink:href="#s0_glyph0-9" x="147.4753" y="521.426"/>
  <use xlink:href="#s0_glyph0-6" x="152.4566" y="521.426"/>
  <use xlink:href="#s0_glyph0-5" x="157.4379" y="521.426"/>
</g>
<g style="fill:rgb(0%,0%,0%);fill-opacity:1;">
  <use xlink:href="#s0_glyph0-8" x="142.494" y="533.381"/>
  <use xlink:href="#s0_glyph0-6" x="147.4753" y="533.381"/>
  <use xlink:href="#s0_glyph0-1" x="152.4566" y="533.381"/>
  <use xlink:href="#s0_glyph0-6" x="157.4379" y="533.381"/>
</g>
<path style="fill:none;stroke-width:0.567;stroke-linecap:butt;stroke-linejoin:miter;stroke:rgb(0%,0%,0%);stroke-opacity:1;stroke-miterlimit:10;" d="M -0.0008125 0.001 L 301.647625 0.001 " transform="matrix(1,0,0,-1,35.118,537.251)"/>
<g style="fill:rgb(0%,0%,0%);fill-opacity:1;">
  <use xlink:href="#s0_glyph0-8" x="147.475" y="545.903"/>
  <use xlink:href="#s0_glyph0-6" x="152.4563" y="545.903"/>
  <use xlink:href="#s0_glyph0-8" x="157.4376" y="545.903"/>
</g>
</g>

</g>

</svg>