<?xml version="1.0" encoding="UTF-8"?>
<svg xmlns="http://www.w3.org/2000/svg" xmlns:xlink="http://www.w3.org/1999/xlink"
     width="538.24" height="1057.13"
     viewBox="0 0 538.24 1057.13">
<rect width="100%" height="100%" fill="white"/>
<text x="0" y="20.00" font-family="serif" font-size="14" fill="black">96.4 ÷ 6.1 = 15.80327868852459</text>
<g transform="translate(0.00,29.33)">

<defs>
<g>
<symbol overflow="visible" id="s0_glyph0-0">
<path style="stroke:none;" d=""/>
</symbol>
<symbol overflow="visible" id="s0_glyph0-1">
<path style="stroke:none;" d="M 1.46875 -4.15625 C 1.46875 -7.1875 2.9375 -7.65625 3.578125 -7.65625 C 4.015625 -7.65625 4.453125 -7.53125 4.671875 -7.171875 C 4.53125 -7.171875 4.078125 -7.171875 4.078125 -6.6875 C 4.078125 -6.421875 4.25 -6.1875 4.5625 -6.1875 C 4.859375 -6.1875 5.0625 -6.375 5.0625 -6.71875 C 5.0625 -7.34375 4.609375 -7.953125 3.578125 -7.953125 C 2.0625 -7.953125 0.484375 -6.40625 0.484375 -3.78125 C 0.484375 -0.484375 1.921875 0.25 2.9375 0.25 C 4.25 0.25 5.359375 -0.890625 5.359375 -2.4375 C 5.359375 -4.03125 4.25 -5.09375 3.046875 -5.09375 C 1.984375 -5.09375 1.59375 -4.171875 1.46875 -3.84375 Z M 2.9375 -0.078125 C 2.1875 -0.078125 1.828125 -0.734375 1.71875 -0.984375 C 1.609375 -1.296875 1.5 -1.890625 1.5 -2.71875 C 1.5 -3.671875 1.921875 -4.859375 3 -4.859375 C 3.65625 -4.859375 4 -4.40625 4.1875 -4 C 4.375 -3.5625 4.375 -2.96875 4.375 -2.453125 C 4.375 -1.84375 4.375 -1.296875 4.140625 -0.84375 C 3.84375 -0.28125 3.421875 -0.078125 2.9375 -0.078125 Z M 2.9375 -0.078125 "/>
</symbol>
<symbol overflow="visible" id="s0_glyph0-2">
<path style="stroke:none;" d="M 3.4375 -7.65625 C 3.4375 -7.9375 3.4375 -7.953125 3.203125 -7.953125 C 2.921875 -7.625 2.3125 -7.1875 1.09375 -7.1875 L 1.09375 -6.84375 C 1.359375 -6.84375 1.953125 -6.84375 2.625 -7.140625 L 2.625 -0.921875 C 2.625 -0.484375 2.578125 -0.34375 1.53125 -0.34375 L 1.15625 -0.34375 L 1.15625 0 C 1.484375 -0.03125 2.640625 -0.03125 3.03125 -0.03125 C 3.4375 -0.03125 4.578125 -0.03125 4.90625 0 L 4.90625 -0.34375 L 4.53125 -0.34375 C 3.484375 -0.34375 3.4375 -0.484375 3.4375 -0.921875 Z M 3.4375 -7.65625 "/>
</symbol>
<symbol overflow="visible" id="s0_glyph0-3">
<path style="stroke:none;" d="M 1.53125 -6.84375 C 2.046875 -6.6875 2.46875 -6.671875 2.59375 -6.671875 C 3.9375 -6.671875 4.8125 -7.65625 4.8125 -7.828125 C 4.8125 -7.875 4.78125 -7.9375 4.703125 -7.9375 C 4.6875 -7.9375 4.65625 -7.9375 4.546875 -7.890625 C 3.890625 -7.609375 3.3125 -7.5625 3 -7.5625 C 2.21875 -7.5625 1.65625 -7.8125 1.421875 -7.90625 C 1.34375 -7.9375 1.3125 -7.9375 1.296875 -7.9375 C 1.203125 -7.9375 1.203125 -7.859375 1.203125 -7.671875 L 1.203125 -4.125 C 1.203125 -3.90625 1.203125 -3.84375 1.34375 -3.84375 C 1.40625 -3.84375 1.421875 -3.84375 1.546875 -4 C 1.875 -4.484375 2.4375 -4.765625 3.03125 -4.765625 C 3.671875 -4.765625 3.984375 -4.1875 4.078125 -3.984375 C 4.28125 -3.515625 4.296875 -2.921875 4.296875 -2.46875 C 4.296875 -2.015625 4.296875 -1.34375 3.953125 -0.796875 C 3.6875 -0.375 3.234375 -0.078125 2.703125 -0.078125 C 1.90625 -0.078125 1.140625 -0.609375 0.921875 -1.484375 C 0.984375 -1.453125 1.046875 -1.453125 1.109375 -1.453125 C 1.3125 -1.453125 1.640625 -1.5625 1.640625 -1.96875 C 1.640625 -2.3125 1.40625 -2.5 1.109375 -2.5 C 0.890625 -2.5 0.578125 -2.390625 0.578125 -1.921875 C 0.578125 -0.90625 1.40625 0.25 2.71875 0.25 C 4.078125 0.25 5.265625 -0.890625 5.265625 -2.40625 C 5.265625 -3.828125 4.296875 -5.015625 3.046875 -5.015625 C 2.359375 -5.015625 1.84375 -4.703125 1.53125 -4.375 Z M 1.53125 -6.84375 "/>
</symbol>
<symbol overflow="visible" id="s0_glyph0-4">
<path style="stroke:none;" d="M 2.203125 -0.578125 C 2.203125 -0.90625 1.921875 -1.15625 1.625 -1.15625 C 1.28125 -1.15625 1.046875 -0.890625 1.046875 -0.578125 C 1.046875 -0.234375 1.34375 0 1.609375 0 C 1.9375 0 2.203125 -0.25 2.203125 -0.578125 Z M 2.203125 -0.578125 "/>
</symbol>
<symbol overflow="visible" id="s0_glyph0-5">
<path style="stroke:none;" d="M 3.5625 -4.3125 C 4.15625 -4.640625 5.03125 -5.1875 5.03125 -6.1875 C 5.03125 -7.234375 4.03125 -7.953125 2.921875 -7.953125 C 1.75 -7.953125 0.8125 -7.078125 0.8125 -5.984375 C 0.8125 -5.578125 0.9375 -5.171875 1.265625 -4.765625 C 1.40625 -4.609375 1.40625 -4.609375 2.25 -4.015625 C 1.09375 -3.484375 0.484375 -2.671875 0.484375 -1.8125 C 0.484375 -0.53125 1.703125 0.25 2.921875 0.25 C 4.25 0.25 5.359375 -0.734375 5.359375 -1.984375 C 5.359375 -3.203125 4.5 -3.734375 3.5625 -4.3125 Z M 1.9375 -5.390625 C 1.78125 -5.5 1.296875 -5.8125 1.296875 -6.390625 C 1.296875 -7.171875 2.109375 -7.65625 2.921875 -7.65625 C 3.78125 -7.65625 4.546875 -7.046875 4.546875 -6.1875 C 4.546875 -5.453125 4.015625 -4.859375 3.328125 -4.484375 Z M 2.5 -3.84375 L 3.9375 -2.90625 C 4.25 -2.703125 4.8125 -2.328125 4.8125 -1.609375 C 4.8125 -0.6875 3.890625 -0.078125 2.921875 -0.078125 C 1.90625 -0.078125 1.046875 -0.8125 1.046875 -1.8125 C 1.046875 -2.734375 1.71875 -3.484375 2.5 -3.84375 Z M 2.5 -3.84375 "/>
</symbol>
<symbol overflow="visible" id="s0_glyph0-6">
<path style="stroke:none;" d="M 5.359375 -3.828125 C 5.359375 -4.8125 5.296875 -5.78125 4.859375 -6.6875 C 4.375 -7.6875 3.515625 -7.953125 2.921875 -7.953125 C 2.234375 -7.953125 1.390625 -7.609375 0.9375 -6.609375 C 0.609375 -5.859375 0.484375 -5.109375 0.484375 -3.828125 C 0.484375 -2.671875 0.578125 -1.796875 1 -0.9375 C 1.46875 -0.03125 2.296875 0.25 2.921875 0.25 C 3.953125 0.25 4.546875 -0.375 4.90625 -1.0625 C 5.328125 -1.953125 5.359375 -3.125 5.359375 -3.828125 Z M 2.921875 0.015625 C 2.53125 0.015625 1.75 -0.203125 1.53125 -1.5 C 1.40625 -2.21875 1.40625 -3.125 1.40625 -3.96875 C 1.40625 -4.953125 1.40625 -5.828125 1.59375 -6.53125 C 1.796875 -7.34375 2.40625 -7.703125 2.921875 -7.703125 C 3.375 -7.703125 4.0625 -7.4375 4.296875 -6.40625 C 4.453125 -5.71875 4.453125 -4.78125 4.453125 -3.96875 C 4.453125 -3.171875 4.453125 -2.265625 4.3125 -1.53125 C 4.09375 -0.21875 3.328125 0.015625 2.921875 0.015625 Z M 2.921875 0.015625 "/>
</symbol>
<symbol overflow="visible" id="s0_glyph0-7">
<path style="stroke:none;" d="M 2.203125 -4.296875 C 2 -4.28125 1.953125 -4.265625 1.953125 -4.15625 C 1.953125 -4.046875 2.015625 -4.046875 2.21875 -4.046875 L 2.765625 -4.046875 C 3.796875 -4.046875 4.25 -3.203125 4.25 -2.0625 C 4.25 -0.484375 3.4375 -0.078125 2.84375 -0.078125 C 2.265625 -0.078125 1.296875 -0.34375 0.9375 -1.140625 C 1.328125 -1.078125 1.671875 -1.296875 1.671875 -1.71875 C 1.671875 -2.0625 1.421875 -2.3125 1.09375 -2.3125 C 0.796875 -2.3125 0.484375 -2.140625 0.484375 -1.6875 C 0.484375 -0.625 1.546875 0.25 2.875 0.25 C 4.296875 0.25 5.359375 -0.84375 5.359375 -2.046875 C 5.359375 -3.140625 4.46875 -4 3.328125 -4.203125 C 4.359375 -4.5 5.03125 -5.375 5.03125 -6.3125 C 5.03125 -7.25 4.046875 -7.953125 2.890625 -7.953125 C 1.703125 -7.953125 0.8125 -7.21875 0.8125 -6.34375 C 0.8125 -5.875 1.1875 -5.765625 1.359375 -5.765625 C 1.609375 -5.765625 1.90625 -5.953125 1.90625 -6.3125 C 1.90625 -6.6875 1.609375 -6.859375 1.34375 -6.859375 C 1.28125 -6.859375 1.25 -6.859375 1.21875 -6.84375 C 1.671875 -7.65625 2.796875 -7.65625 2.859375 -7.65625 C 3.25 -7.65625 4.03125 -7.484375 4.03125 -6.3125 C 4.03125 -6.078125 4 -5.421875 3.640625 -4.90625 C 3.28125 -4.375 2.875 -4.34375 2.5625 -4.328125 Z M 2.203125 -4.296875 "/>
</symbol>
<symbol overflow="visible" id="s0_glyph0-8">
<path style="stroke:none;" d="M 5.265625 -2.015625 L 5 -2.015625 C 4.953125 -1.8125 4.859375 -1.140625 4.75 -0.953125 C 4.65625 -0.84375 3.984375 -0.84375 3.625 -0.84375 L 1.40625 -0.84375 C 1.734375 -1.125 2.46875 -1.890625 2.765625 -2.171875 C 4.59375 -3.84375 5.265625 -4.46875 5.265625 -5.65625 C 5.265625 -7.03125 4.171875 -7.953125 2.78125 -7.953125 C 1.40625 -7.953125 0.578125 -6.765625 0.578125 -5.734375 C 0.578125 -5.125 1.109375 -5.125 1.140625 -5.125 C 1.40625 -5.125 1.703125 -5.3125 1.703125 -5.6875 C 1.703125 -6.03125 1.484375 -6.25 1.140625 -6.25 C 1.046875 -6.25 1.015625 -6.25 0.984375 -6.234375 C 1.203125 -7.046875 1.859375 -7.609375 2.625 -7.609375 C 3.640625 -7.609375 4.265625 -6.75 4.265625 -5.65625 C 4.265625 -4.640625 3.6875 -3.75 3 -2.984375 L 0.578125 -0.28125 L 0.578125 0 L 4.953125 0 Z M 5.265625 -2.015625 "/>
</symbol>
<symbol overflow="visible" id="s0_glyph0-9">
<path style="stroke:none;" d="M 5.671875 -7.421875 L 5.671875 -7.703125 L 2.796875 -7.703125 C 1.34375 -7.703125 1.328125 -7.859375 1.28125 -8.078125 L 1.015625 -8.078125 L 0.640625 -5.6875 L 0.90625 -5.6875 C 0.9375 -5.90625 1.046875 -6.640625 1.203125 -6.78125 C 1.296875 -6.84375 2.203125 -6.84375 2.359375 -6.84375 L 4.90625 -6.84375 L 3.640625 -5.03125 C 3.3125 -4.5625 2.109375 -2.609375 2.109375 -0.359375 C 2.109375 -0.234375 2.109375 0.25 2.59375 0.25 C 3.09375 0.25 3.09375 -0.21875 3.09375 -0.375 L 3.09375 -0.96875 C 3.09375 -2.75 3.375 -4.140625 3.9375 -4.9375 Z M 5.671875 -7.421875 "/>
</symbol>
<symbol overflow="visible" id="s0_glyph0-10">
<path style="stroke:none;" d="M 4.3125 -7.78125 C 4.3125 -8.015625 4.3125 -8.0625 4.140625 -8.0625 C 4.046875 -8.0625 4.015625 -8.0625 3.921875 -7.921875 L 0.328125 -2.34375 L 0.328125 -2 L 3.46875 -2 L 3.46875 -0.90625 C 3.46875 -0.46875 3.4375 -0.34375 2.5625 -0.34375 L 2.328125 -0.34375 L 2.328125 0 C 2.609375 -0.03125 3.546875 -0.03125 3.890625 -0.03125 C 4.21875 -0.03125 5.171875 -0.03125 5.453125 0 L 5.453125 -0.34375 L 5.21875 -0.34375 C 4.34375 -0.34375 4.3125 -0.46875 4.3125 -0.90625 L 4.3125 -2 L 5.515625 -2 L 5.515625 -2.34375 L 4.3125 -2.34375 Z M 3.53125 -6.84375 L 3.53125 -2.34375 L 0.625 -2.34375 Z M 3.53125 -6.84375 "/>
</symbol>
<symbol overflow="visible" id="s0_glyph0-11">
<path style="stroke:none;" d="M 4.375 -3.484375 C 4.375 -0.65625 3.125 -0.078125 2.40625 -0.078125 C 2.109375 -0.078125 1.484375 -0.109375 1.1875 -0.53125 L 1.25 -0.53125 C 1.34375 -0.5 1.765625 -0.578125 1.765625 -1.015625 C 1.765625 -1.28125 1.59375 -1.5 1.28125 -1.5 C 0.96875 -1.5 0.78125 -1.296875 0.78125 -0.984375 C 0.78125 -0.25 1.375 0.25 2.421875 0.25 C 3.90625 0.25 5.359375 -1.34375 5.359375 -3.9375 C 5.359375 -7.140625 4.015625 -7.953125 2.96875 -7.953125 C 1.65625 -7.953125 0.484375 -6.84375 0.484375 -5.265625 C 0.484375 -3.6875 1.609375 -2.625 2.796875 -2.625 C 3.6875 -2.625 4.140625 -3.265625 4.375 -3.875 Z M 2.84375 -2.859375 C 2.09375 -2.859375 1.765625 -3.46875 1.65625 -3.6875 C 1.46875 -4.140625 1.46875 -4.71875 1.46875 -5.265625 C 1.46875 -5.921875 1.46875 -6.5 1.78125 -7 C 2 -7.3125 2.3125 -7.65625 2.96875 -7.65625 C 3.640625 -7.65625 4 -7.0625 4.109375 -6.796875 C 4.34375 -6.203125 4.34375 -5.1875 4.34375 -5.015625 C 4.34375 -4 3.890625 -2.859375 2.84375 -2.859375 Z M 2.84375 -2.859375 "/>
</symbol>
<symbol overflow="visible" id="s0_glyph0-12">
<path style="stroke:none;" d="M 3.375 -2.96875 C 3.375 -3.890625 3.25 -5.359375 2.578125 -6.75 C 1.875 -8.1875 0.890625 -8.96875 0.765625 -8.96875 C 0.71875 -8.96875 0.65625 -8.9375 0.65625 -8.875 C 0.65625 -8.828125 0.65625 -8.8125 0.859375 -8.609375 C 2.0625 -7.40625 2.71875 -5.421875 2.71875 -2.984375 C 2.71875 -0.671875 2.15625 1.328125 0.78125 2.734375 C 0.65625 2.84375 0.65625 2.875 0.65625 2.90625 C 0.65625 2.96875 0.71875 3 0.765625 3 C 0.921875 3 1.90625 2.140625 2.484375 0.96875 C 3.09375 -0.25 3.375 -1.546875 3.375 -2.96875 Z M 3.375 -2.96875 "/>
</symbol>
</g>
</defs>
<g id="s0_surface1">
<g style="fill:rgb(0%,0%,0%);fill-opacity:1;">
  <use xlink:href="#s0_glyph0-1" x="13.948" y="34.919"/>
  <use xlink:href="#s0_glyph0-2" x="19.801266" y="34.919"/>
</g>
<g style="fill:rgb(0%,0%,0%);fill-opacity:1;">
  <use xlink:href="#s0_glyph0-2" x="38.01" y="20.075"/>
  <use xlink:href="#s0_glyph0-3" x="43.863266" y="20.075"/>
  <use xlink:href="#s0_glyph0-4" x="49.716532" y="20.075"/>
  <use xlink:href="#s0_glyph0-5" x="52.968346" y="20.075"/>
  <use xlink:href="#s0_glyph0-6" x="58.821612" y="20.075"/>
  <use xlink:href="#s0_glyph0-7" x="64.674878" y="20.075"/>
  <use xlink:href="#s0_glyph0-8" x="70.528144" y="20.075"/>
  <use xlink:href="#s0_glyph0-9" x="76.38141" y="20.075"/>
  <use xlink:href="#s0_glyph0-5" x="82.234676" y="20.075"/>
  <use xlink:href="#s0_glyph0-1" x="88.087942" y="20.075"/>
  <use xlink:href="#s0_glyph0-5" x="93.941208" y="20.075"/>
  <use xlink:href="#s0_glyph0-5" x="99.794474" y="20.075"/>
  <use xlink:href="#s0_glyph0-3" x="105.64774" y="20.075"/>
  <use xlink:href="#s0_glyph0-8" x="111.501005" y="20.075"/>
  <use xlink:href="#s0_glyph0-10" x="117.354271" y="20.075"/>
  <use xlink:href="#s0_glyph0-3" x="123.207537" y="20.075"/>
  <use xlink:href="#s0_glyph0-11" x="129.060803" y="20.075"/>
  <use xlink:href="#s0_glyph0-6" x="134.914069" y="20.075"/>
  <use xlink:href="#s0_glyph0-2" x="140.767335" y="20.075"/>
  <use xlink:href="#s0_glyph0-1" x="146.620601" y="20.075"/>
  <use xlink:href="#s0_glyph0-7" x="152.473867" y="20.075"/>
  <use xlink:href="#s0_glyph0-11" x="158.327133" y="20.075"/>
  <use xlink:href="#s0_glyph0-7" x="164.180399" y="20.075"/>
</g>
<g style="fill:rgb(0%,0%,0%);fill-opacity:1;">
  <use xlink:href="#s0_glyph0-10" x="170.021709" y="20.075"/>
  <use xlink:href="#s0_glyph0-10" x="175.874975" y="20.075"/>
  <use xlink:href="#s0_glyph0-8" x="181.728241" y="20.075"/>
  <use xlink:href="#s0_glyph0-1" x="187.581507" y="20.075"/>
  <use xlink:href="#s0_glyph0-8" x="193.434773" y="20.075"/>
  <use xlink:href="#s0_glyph0-8" x="199.288039" y="20.075"/>
  <use xlink:href="#s0_glyph0-11" x="205.141305" y="20.075"/>
  <use xlink:href="#s0_glyph0-3" x="210.994571" y="20.075"/>
  <use xlink:href="#s0_glyph0-6" x="216.847837" y="20.075"/>
  <use xlink:href="#s0_glyph0-5" x="222.701103" y="20.075"/>
  <use xlink:href="#s0_glyph0-2" x="228.554369" y="20.075"/>
  <use xlink:href="#s0_glyph0-11" x="234.407635" y="20.075"/>
  <use xlink:href="#s0_glyph0-1" x="240.2609" y="20.075"/>
  <use xlink:href="#s0_glyph0-9" x="246.114166" y="20.075"/>
  <use xlink:href="#s0_glyph0-8" x="251.967432" y="20.075"/>
  <use xlink:href="#s0_glyph0-2" x="257.820698" y="20.075"/>
  <use xlink:href="#s0_glyph0-7" x="263.673964" y="20.075"/>
  <use xlink:href="#s0_glyph0-2" x="269.52723" y="20.075"/>
  <use xlink:href="#s0_glyph0-2" x="275.380496" y="20.075"/>
  <use xlink:href="#s0_glyph0-10" x="281.233762" y="20.075"/>
  <use xlink:href="#s0_glyph0-9" x="287.087028" y="20.075"/>
  <use xlink:href="#s0_glyph0-3" x="292.940294" y="20.075"/>
  <use xlink:href="#s0_glyph0-10" x="298.79356" y="20.075"/>
  <use xlink:href="#s0_glyph0-6" x="304.646826" y="20.075"/>
  <use xlink:href="#s0_glyph0-11" x="310.500092" y="20.075"/>
  <use xlink:href="#s0_glyph0-5" x="316.353357" y="20.075"/>
  <use xlink:href="#s0_glyph0-7" x="322.206623" y="20.075"/>
  <use xlink:href="#s0_glyph0-1" x="328.059889" y="20.075"/>
  <use xlink:href="#s0_glyph0-6" x="333.913155" y="20.075"/>
  <use xlink:href="#s0_glyph0-1" x="339.766421" y="20.075"/>
  <use xlink:href="#s0_glyph0-3" x="345.619687" y="20.075"/>
  <use xlink:href="#s0_glyph0-3" x="351.472953" y="20.075"/>
  <use xlink:href="#s0_glyph0-9" x="357.326219" y="20.075"/>
  <use xlink:href="#s0_glyph0-7" x="363.179485" y="20.075"/>
  <use xlink:href="#s0_glyph0-9" x="369.032751" y="20.075"/>
  <use xlink:href="#s0_glyph0-9" x="374.886017" y="20.075"/>
  <use xlink:href="#s0_glyph0-6" x="380.739283" y="20.075"/>
</g>
<path style="fill:none;stroke-width:0.398;stroke-linecap:butt;stroke-linejoin:miter;stroke:rgb(0%,0%,0%);stroke-opacity:1;stroke-miterlimit:10;" d="M 0.00046875 -0.001375 L 360.934062 -0.001375 " transform="matrix(1,0,0,-1,27.605,24.608)"/>
<g style="fill:rgb(0%,0%,0%);fill-opacity:1;">
  <use xlink:href="#s0_glyph0-12" x="27.605" y="34.919"/>
  <use xlink:href="#s0_glyph0-11" x="32.15754" y="34.919"/>
  <use xlink:href="#s0_glyph0-1" x="38.010806" y="34.919"/>
  <use xlink:href="#s0_glyph0-10" x="43.864072" y="34.919"/>
  <use xlink:href="#s0_glyph0-4" x="49.717338" y="34.919"/>
  <use xlink:href="#s0_glyph0-6" x="52.969152" y="34.919"/>
  <use xlink:href="#s0_glyph0-6" x="58.822418" y="34.919"/>
  <use xlink:href="#s0_glyph0-6" x="64.675684" y="34.919"/>
  <use xlink:href="#s0_glyph0-6" x="70.52895" y="34.919"/>
  <use xlink:href="#s0_glyph0-6" x="76.382216" y="34.919"/>
  <use xlink:href="#s0_glyph0-6" x="82.235482" y="34.919"/>
  <use xlink:href="#s0_glyph0-6" x="88.088748" y="34.919"/>
  <use xlink:href="#s0_glyph0-6" x="93.942014" y="34.919"/>
  <use xlink:href="#s0_glyph0-6" x="99.79528" y="34.919"/>
  <use xlink:href="#s0_glyph0-6" x="105.648546" y="34.919"/>
  <use xlink:href="#s0_glyph0-6" x="111.501812" y="34.919"/>
  <use xlink:href="#s0_glyph0-6" x="117.355077" y="34.919"/>
  <use xlink:href="#s0_glyph0-6" x="123.208343" y="34.919"/>
  <use xlink:href="#s0_glyph0-6" x="129.061609" y="34.919"/>
  <use xlink:href="#s0_glyph0-6" x="134.914875" y="34.919"/>
  <use xlink:href="#s0_glyph0-6" x="140.768141" y="34.919"/>
  <use xlink:href="#s0_glyph0-6" x="146.621407" y="34.919"/>
</g>
<g style="fill:rgb(0%,0%,0%);fill-opacity:1;">
  <use xlink:href="#s0_glyph0-6" x="152.462718" y="34.919"/>
  <use xlink:href="#s0_glyph0-6" x="158.315984" y="34.919"/>
  <use xlink:href="#s0_glyph0-6" x="164.16925" y="34.919"/>
  <use xlink:href="#s0_glyph0-6" x="170.022516" y="34.919"/>
  <use xlink:href="#s0_glyph0-6" x="175.875781" y="34.919"/>
  <use xlink:href="#s0_glyph0-6" x="181.729047" y="34.919"/>
  <use xlink:href="#s0_glyph0-6" x="187.582313" y="34.919"/>
  <use xlink:href="#s0_glyph0-6" x="193.435579" y="34.919"/>
  <use xlink:href="#s0_glyph0-6" x="199.288845" y="34.919"/>
  <use xlink:href="#s0_glyph0-6" x="205.142111" y="34.919"/>
  <use xlink:href="#s0_glyph0-6" x="210.995377" y="34.919"/>
  <use xlink:href="#s0_glyph0-6" x="216.848643" y="34.919"/>
  <use xlink:href="#s0_glyph0-6" x="222.701909" y="34.919"/>
  <use xlink:href="#s0_glyph0-6" x="228.555175" y="34.919"/>
  <use xlink:href="#s0_glyph0-6" x="234.408441" y="34.919"/>
  <use xlink:href="#s0_glyph0-6" x="240.261707" y="34.919"/>
  <use xlink:href="#s0_glyph0-6" x="246.114972" y="34.919"/>
  <use xlink:href="#s0_glyph0-6" x="251.968238" y="34.919"/>
  <use xlink:href="#s0_glyph0-6" x="257.821504" y="34.919"/>
  <use xlink:href="#s0_glyph0-6" x="263.67477" y="34.919"/>
  <use xlink:href="#s0_glyph0-6" x="269.528036" y="34.919"/>
  <use xlink:href="#s0_glyph0-6" x="275.381302" y="34.919"/>
  <use xlink:href="#s0_glyph0-6" x="281.234568" y="34.919"/>
  <use xlink:href="#s0_glyph0-6" x="287.087834" y="34.919"/>
  <use xlink:href="#s0_glyph0-6" x="292.9411" y="34.919"/>
  <use xlink:href="#s0_glyph0-6" x="298.794366" y="34.919"/>
  <use xlink:href="#s0_glyph0-6" x="304.647632" y="34.919"/>
  <use xlink:href="#s0_glyph0-6" x="310.500898" y="34.919"/>
  <use xlink:href="#s0_glyph0-6" x="316.354164" y="34.919"/>
  <use xlink:href="#s0_glyph0-6" x="322.207429" y="34.919"/>
  <use xlink:href="#s0_glyph0-6" x="328.060695" y="34.919"/>
  <use xlink:href="#s0_glyph0-6" x="333.913961" y="34.919"/>
  <use xlink:href="#s0_glyph0-6" x="339.767227" y="34.919"/>
  <use xlink:href="#s0_glyph0-6" x="345.620493" y="34.919"/>
  <use xlink:href="#s0_glyph0-6" x="351.473759" y="34.919"/>
  <use xlink:href="#s0_glyph0-6" x="357.327025" y="34.919"/>
  <use xlink:href="#s0_glyph0-6" x="363.180291" y="34.919"/>
  <use xlink:href="#s0_glyph0-6" x="369.033557" y="34.919"/>
  <use xlink:href="#s0_glyph0-6" x="374.886823" y="34.919"/>
  <use xlink:href="#s0_glyph0-6" x="380.740089" y="34.919"/>
</g>
<g style="fill:rgb(0%,0%,0%);fill-opacity:1;">
  <use xlink:href="#s0_glyph0-1" x="32.157" y="49.365"/>
  <use xlink:href="#s0_glyph0-2" x="38.010266" y="49.365"/>
</g>
<path style="fill:none;stroke-width:0.567;stroke-linecap:butt;stroke-linejoin:miter;stroke:rgb(0%,0%,0%);stroke-opacity:1;stroke-miterlimit:10;" d="M -0.00075 0.00153125 L 354.432844 0.00153125 " transform="matrix(1,0,0,-1,32.157,53.982)"/>
<g style="fill:rgb(0%,0%,0%);fill-opacity:1;">
  <use xlink:href="#s0_glyph0-7" x="32.157" y="64.378"/>
  <use xlink:href="#s0_glyph0-3" x="38.010266" y="64.378"/>
  <use xlink:href="#s0_glyph0-10" x="43.863532" y="64.378"/>
</g>
<g style="fill:rgb(0%,0%,0%);fill-opacity:1;">
  <use xlink:href="#s0_glyph0-7" x="32.157" y="78.824"/>
  <use xlink:href="#s0_glyph0-6" x="38.010266" y="78.824"/>
  <use xlink:href="#s0_glyph0-3" x="43.863532" y="78.824"/>
</g>
<path style="fill:none;stroke-width:0.567;stroke-linecap:butt;stroke-linejoin:miter;stroke:rgb(0%,0%,0%);stroke-opacity:1;stroke-miterlimit:10;" d="M -0.00075 -0.00040625 L 354.432844 -0.00040625 " transform="matrix(1,0,0,-1,32.157,83.441)"/>
<g style="fill:rgb(0%,0%,0%);fill-opacity:1;">
  <use xlink:href="#s0_glyph0-10" x="38.01" y="93.837"/>
  <use xlink:href="#s0_glyph0-11" x="43.863266" y="93.837"/>
</g>
<g style="fill:rgb(0%,0%,0%);fill-opacity:1;">
  <use xlink:href="#s0_glyph0-6" x="52.968346" y="93.837"/>
</g>
<g style="fill:rgb(0%,0%,0%);fill-opacity:1;">
  <use xlink:href="#s0_glyph0-10" x="38.01" y="108.282"/>
  <use xlink:href="#s0_glyph0-5" x="43.863266" y="108.282"/>
</g>
<g style="fill:rgb(0%,0%,0%);fill-opacity:1;">
  <use xlink:href="#s0_glyph0-5" x="52.968346" y="108.282"/>
</g>
<path style="fill:none;stroke-width:0.567;stroke-linecap:butt;stroke-linejoin:miter;stroke:rgb(0%,0%,0%);stroke-opacity:1;stroke-miterlimit:10;" d="M -0.00075 0.0015625 L 354.432844 0.0015625 " transform="matrix(1,0,0,-1,32.157,112.9)"/>
<g style="fill:rgb(0%,0%,0%);fill-opacity:1;">
  <use xlink:href="#s0_glyph0-8" x="52.968" y="123.295"/>
  <use xlink:href="#s0_glyph0-6" x="58.821266" y="123.295"/>
  <use xlink:href="#s0_glyph0-6" x="64.674532" y="123.295"/>
</g>
<g style="fill:rgb(0%,0%,0%);fill-opacity:1;">
  <use xlink:href="#s0_glyph0-2" x="52.968" y="137.741"/>
  <use xlink:href="#s0_glyph0-5" x="58.821266" y="137.741"/>
  <use xlink:href="#s0_glyph0-7" x="64.674532" y="137.741"/>
</g>
<path style="fill:none;stroke-width:0.567;stroke-linecap:butt;stroke-linejoin:miter;stroke:rgb(0%,0%,0%);stroke-opacity:1;stroke-miterlimit:10;" d="M -0.00075 -0.001375 L 354.432844 -0.001375 " transform="matrix(1,0,0,-1,32.157,142.358)"/>
<g style="fill:rgb(0%,0%,0%);fill-opacity:1;">
  <use xlink:href="#s0_glyph0-2" x="58.821" y="152.754"/>
  <use xlink:href="#s0_glyph0-9" x="64.674266" y="152.754"/>
  <use xlink:href="#s0_glyph0-6" x="70.527532" y="152.754"/>
</g>
<g style="fill:rgb(0%,0%,0%);fill-opacity:1;">
  <use xlink:href="#s0_glyph0-2" x="58.821" y="167.199"/>
  <use xlink:href="#s0_glyph0-8" x="64.674266" y="167.199"/>
  <use xlink:href="#s0_glyph0-8" x="70.527532" y="167.199"/>
</g>
<path style="fill:none;stroke-width:0.567;stroke-linecap:butt;stroke-linejoin:miter;stroke:rgb(0%,0%,0%);stroke-opacity:1;stroke-miterlimit:10;" d="M -0.00075 0.00059375 L 354.432844 0.00059375 " transform="matrix(1,0,0,-1,32.157,171.817)"/>
<g style="fill:rgb(0%,0%,0%);fill-opacity:1;">
  <use xlink:href="#s0_glyph0-10" x="64.674" y="182.212"/>
  <use xlink:href="#s0_glyph0-5" x="70.527266" y="182.212"/>
  <use xlink:href="#s0_glyph0-6" x="76.380532" y="182.212"/>
</g>
<g style="fill:rgb(0%,0%,0%);fill-opacity:1;">
  <use xlink:href="#s0_glyph0-10" x="64.674" y="196.658"/>
  <use xlink:href="#s0_glyph0-8" x="70.527266" y="196.658"/>
  <use xlink:href="#s0_glyph0-9" x="76.380532" y="196.658"/>
</g>
<path style="fill:none;stroke-width:0.567;stroke-linecap:butt;stroke-linejoin:miter;stroke:rgb(0%,0%,0%);stroke-opacity:1;stroke-miterlimit:10;" d="M -0.00075 0.0015625 L 354.432844 0.0015625 " transform="matrix(1,0,0,-1,32.157,201.275)"/>
<g style="fill:rgb(0%,0%,0%);fill-opacity:1;">
  <use xlink:href="#s0_glyph0-3" x="70.527" y="211.671"/>
  <use xlink:href="#s0_glyph0-7" x="76.380266" y="211.671"/>
  <use xlink:href="#s0_glyph0-6" x="82.233532" y="211.671"/>
</g>
<g style="fill:rgb(0%,0%,0%);fill-opacity:1;">
  <use xlink:href="#s0_glyph0-10" x="70.527" y="226.117"/>
  <use xlink:href="#s0_glyph0-5" x="76.380266" y="226.117"/>
  <use xlink:href="#s0_glyph0-5" x="82.233532" y="226.117"/>
</g>
<path style="fill:none;stroke-width:0.567;stroke-linecap:butt;stroke-linejoin:miter;stroke:rgb(0%,0%,0%);stroke-opacity:1;stroke-miterlimit:10;" d="M -0.00075 -0.000375 L 354.432844 -0.000375 " transform="matrix(1,0,0,-1,32.157,230.734)"/>
<g style="fill:rgb(0%,0%,0%);fill-opacity:1;">
  <use xlink:href="#s0_glyph0-10" x="76.38" y="241.129"/>
  <use xlink:href="#s0_glyph0-8" x="82.233266" y="241.129"/>
  <use xlink:href="#s0_glyph0-6" x="88.086532" y="241.129"/>
</g>
<g style="fill:rgb(0%,0%,0%);fill-opacity:1;">
  <use xlink:href="#s0_glyph0-7" x="76.38" y="255.575"/>
  <use xlink:href="#s0_glyph0-1" x="82.233266" y="255.575"/>
  <use xlink:href="#s0_glyph0-1" x="88.086532" y="255.575"/>
</g>
<path style="fill:none;stroke-width:0.567;stroke-linecap:butt;stroke-linejoin:miter;stroke:rgb(0%,0%,0%);stroke-opacity:1;stroke-miterlimit:10;" d="M -0.00075 0.00059375 L 354.432844 0.00059375 " transform="matrix(1,0,0,-1,32.157,260.192)"/>
<g style="fill:rgb(0%,0%,0%);fill-opacity:1;">
  <use xlink:href="#s0_glyph0-3" x="82.233" y="270.588"/>
  <use xlink:href="#s0_glyph0-10" x="88.086266" y="270.588"/>
  <use xlink:href="#s0_glyph0-6" x="93.939532" y="270.588"/>
</g>
<g style="fill:rgb(0%,0%,0%);fill-opacity:1;">
  <use xlink:href="#s0_glyph0-10" x="82.233" y="285.034"/>
  <use xlink:href="#s0_glyph0-5" x="88.086266" y="285.034"/>
  <use xlink:href="#s0_glyph0-5" x="93.939532" y="285.034"/>
</g>
<path style="fill:none;stroke-width:0.567;stroke-linecap:butt;stroke-linejoin:miter;stroke:rgb(0%,0%,0%);stroke-opacity:1;stroke-miterlimit:10;" d="M -0.00075 -0.00134375 L 354.432844 -0.00134375 " transform="matrix(1,0,0,-1,32.157,289.651)"/>
<g style="fill:rgb(0%,0%,0%);fill-opacity:1;">
  <use xlink:href="#s0_glyph0-3" x="88.086" y="300.046"/>
  <use xlink:href="#s0_glyph0-8" x="93.939266" y="300.046"/>
  <use xlink:href="#s0_glyph0-6" x="99.792532" y="300.046"/>
</g>
<g style="fill:rgb(0%,0%,0%);fill-opacity:1;">
  <use xlink:href="#s0_glyph0-10" x="88.086" y="314.492"/>
  <use xlink:href="#s0_glyph0-5" x="93.939266" y="314.492"/>
  <use xlink:href="#s0_glyph0-5" x="99.792532" y="314.492"/>
</g>
<path style="fill:none;stroke-width:0.567;stroke-linecap:butt;stroke-linejoin:miter;stroke:rgb(0%,0%,0%);stroke-opacity:1;stroke-miterlimit:10;" d="M -0.00075 -0.000375 L 354.432844 -0.000375 " transform="matrix(1,0,0,-1,32.157,319.109)"/>
<g style="fill:rgb(0%,0%,0%);fill-opacity:1;">
  <use xlink:href="#s0_glyph0-7" x="93.939" y="329.505"/>
  <use xlink:href="#s0_glyph0-8" x="99.792266" y="329.505"/>
  <use xlink:href="#s0_glyph0-6" x="105.645532" y="329.505"/>
</g>
<g style="fill:rgb(0%,0%,0%);fill-opacity:1;">
  <use xlink:href="#s0_glyph0-7" x="93.939" y="343.951"/>
  <use xlink:href="#s0_glyph0-6" x="99.792266" y="343.951"/>
  <use xlink:href="#s0_glyph0-3" x="105.645532" y="343.951"/>
</g>
<path style="fill:none;stroke-width:0.567;stroke-linecap:butt;stroke-linejoin:miter;stroke:rgb(0%,0%,0%);stroke-opacity:1;stroke-miterlimit:10;" d="M -0.00075 0.00159375 L 354.432844 0.00159375 " transform="matrix(1,0,0,-1,32.157,348.568)"/>
<g style="fill:rgb(0%,0%,0%);fill-opacity:1;">
  <use xlink:href="#s0_glyph0-2" x="99.792" y="358.963"/>
  <use xlink:href="#s0_glyph0-3" x="105.645266" y="358.963"/>
  <use xlink:href="#s0_glyph0-6" x="111.498532" y="358.963"/>
</g>
<g style="fill:rgb(0%,0%,0%);fill-opacity:1;">
  <use xlink:href="#s0_glyph0-2" x="99.792" y="373.409"/>
  <use xlink:href="#s0_glyph0-8" x="105.645266" y="373.409"/>
  <use xlink:href="#s0_glyph0-8" x="111.498532" y="373.409"/>
</g>
<path style="fill:none;stroke-width:0.567;stroke-linecap:butt;stroke-linejoin:miter;stroke:rgb(0%,0%,0%);stroke-opacity:1;stroke-miterlimit:10;" d="M -0.00075 -0.00134375 L 354.432844 -0.00134375 " transform="matrix(1,0,0,-1,32.157,378.026)"/>
<g style="fill:rgb(0%,0%,0%);fill-opacity:1;">
  <use xlink:href="#s0_glyph0-8" x="105.645" y="388.422"/>
  <use xlink:href="#s0_glyph0-5" x="111.498266" y="388.422"/>
  <use xlink:href="#s0_glyph0-6" x="117.351532" y="388.422"/>
</g>
<g style="fill:rgb(0%,0%,0%);fill-opacity:1;">
  <use xlink:href="#s0_glyph0-8" x="105.645" y="402.868"/>
  <use xlink:href="#s0_glyph0-10" x="111.498266" y="402.868"/>
  <use xlink:href="#s0_glyph0-10" x="117.351532" y="402.868"/>
</g>
<path style="fill:none;stroke-width:0.567;stroke-linecap:butt;stroke-linejoin:miter;stroke:rgb(0%,0%,0%);stroke-opacity:1;stroke-miterlimit:10;" d="M -0.00075 0.000625 L 354.432844 0.000625 " transform="matrix(1,0,0,-1,32.157,407.485)"/>
<g style="fill:rgb(0%,0%,0%);fill-opacity:1;">
  <use xlink:href="#s0_glyph0-7" x="111.498" y="417.881"/>
  <use xlink:href="#s0_glyph0-1" x="117.351266" y="417.881"/>
  <use xlink:href="#s0_glyph0-6" x="123.204532" y="417.881"/>
</g>
<g style="fill:rgb(0%,0%,0%);fill-opacity:1;">
  <use xlink:href="#s0_glyph0-7" x="111.498" y="432.326"/>
  <use xlink:href="#s0_glyph0-6" x="117.351266" y="432.326"/>
  <use xlink:href="#s0_glyph0-3" x="123.204532" y="432.326"/>
</g>
<path style="fill:none;stroke-width:0.567;stroke-linecap:butt;stroke-linejoin:miter;stroke:rgb(0%,0%,0%);stroke-opacity:1;stroke-miterlimit:10;" d="M -0.00075 -0.0013125 L 354.432844 -0.0013125 " transform="matrix(1,0,0,-1,32.157,436.944)"/>
<g style="fill:rgb(0%,0%,0%);fill-opacity:1;">
  <use xlink:href="#s0_glyph0-3" x="117.351" y="447.339"/>
  <use xlink:href="#s0_glyph0-3" x="123.204266" y="447.339"/>
  <use xlink:href="#s0_glyph0-6" x="129.057532" y="447.339"/>
</g>
<g style="fill:rgb(0%,0%,0%);fill-opacity:1;">
  <use xlink:href="#s0_glyph0-3" x="117.351" y="461.785"/>
  <use xlink:href="#s0_glyph0-10" x="123.204266" y="461.785"/>
  <use xlink:href="#s0_glyph0-11" x="129.057532" y="461.785"/>
</g>
<path style="fill:none;stroke-width:0.567;stroke-linecap:butt;stroke-linejoin:miter;stroke:rgb(0%,0%,0%);stroke-opacity:1;stroke-miterlimit:10;" d="M -0.00075 -0.00034375 L 354.432844 -0.00034375 " transform="matrix(1,0,0,-1,32.157,466.402)"/>
<g style="fill:rgb(0%,0%,0%);fill-opacity:1;">
  <use xlink:href="#s0_glyph0-2" x="129.057" y="476.798"/>
  <use xlink:href="#s0_glyph0-6" x="134.910266" y="476.798"/>
  <use xlink:href="#s0_glyph0-6" x="140.763532" y="476.798"/>
</g>
<g style="fill:rgb(0%,0%,0%);fill-opacity:1;">
  <use xlink:href="#s0_glyph0-1" x="134.91" y="491.243"/>
  <use xlink:href="#s0_glyph0-2" x="140.763266" y="491.243"/>
</g>
<path style="fill:none;stroke-width:0.567;stroke-linecap:butt;stroke-linejoin:miter;stroke:rgb(0%,0%,0%);stroke-opacity:1;stroke-miterlimit:10;" d="M -0.00075 0.001625 L 354.432844 0.001625 " transform="matrix(1,0,0,-1,32.157,495.861)"/>
<g style="fill:rgb(0%,0%,0%);fill-opacity:1;">
  <use xlink:href="#s0_glyph0-7" x="134.91" y="506.256"/>
  <use xlink:href="#s0_glyph0-11" x="140.763266" y="506.256"/>
  <use xlink:href="#s0_glyph0-6" x="146.616532" y="506.256"/>
</g>
<g style="fill:rgb(0%,0%,0%);fill-opacity:1;">
  <use xlink:href="#s0_glyph0-7" x="134.91" y="520.702"/>
  <use xlink:href="#s0_glyph0-1" x="140.763266" y="520.702"/>
  <use xlink:href="#s0_glyph0-1" x="146.616532" y="520.702"/>
</g>
<path style="fill:none;stroke-width:0.567;stroke-linecap:butt;stroke-linejoin:miter;stroke:rgb(0%,0%,0%);stroke-opacity:1;stroke-miterlimit:10;" d="M -0.00075 -0.0013125 L 354.432844 -0.0013125 " transform="matrix(1,0,0,-1,32.157,525.319)"/>
<g style="fill:rgb(0%,0%,0%);fill-opacity:1;">
  <use xlink:href="#s0_glyph0-8" x="140.763" y="535.715"/>
  <use xlink:href="#s0_glyph0-10" x="146.616266" y="535.715"/>
  <use xlink:href="#s0_glyph0-6" x="152.469532" y="535.715"/>
</g>
<g style="fill:rgb(0%,0%,0%);fill-opacity:1;">
  <use xlink:href="#s0_glyph0-2" x="140.763" y="550.161"/>
  <use xlink:href="#s0_glyph0-5" x="146.616266" y="550.161"/>
  <use xlink:href="#s0_glyph0-7" x="152.469532" y="550.161"/>
</g>
<path style="fill:none;stroke-width:0.567;stroke-linecap:butt;stroke-linejoin:miter;stroke:rgb(0%,0%,0%);stroke-opacity:1;stroke-miterlimit:10;" d="M -0.00075 0.00065625 L 354.432844 0.00065625 " transform="matrix(1,0,0,-1,32.157,554.778)"/>
<g style="fill:rgb(0%,0%,0%);fill-opacity:1;">
  <use xlink:href="#s0_glyph0-3" x="146.616" y="565.173"/>
  <use xlink:href="#s0_glyph0-9" x="152.469266" y="565.173"/>
  <use xlink:href="#s0_glyph0-6" x="158.322532" y="565.173"/>
</g>
<g style="fill:rgb(0%,0%,0%);fill-opacity:1;">
  <use xlink:href="#s0_glyph0-3" x="146.616" y="579.619"/>
  <use xlink:href="#s0_glyph0-10" x="152.469266" y="579.619"/>
  <use xlink:href="#s0_glyph0-11" x="158.322532" y="579.619"/>
</g>
<path style="fill:none;stroke-width:0.567;stroke-linecap:butt;stroke-linejoin:miter;stroke:rgb(0%,0%,0%);stroke-opacity:1;stroke-miterlimit:10;" d="M -0.00075 0.001625 L 354.432844 0.001625 " transform="matrix(1,0,0,-1,32.157,584.236)"/>
<g style="fill:rgb(0%,0%,0%);fill-opacity:1;">
  <use xlink:href="#s0_glyph0-8" x="152.469" y="594.632"/>
  <use xlink:href="#s0_glyph0-2" x="158.322266" y="594.632"/>
  <use xlink:href="#s0_glyph0-6" x="164.175532" y="594.632"/>
</g>
<g style="fill:rgb(0%,0%,0%);fill-opacity:1;">
  <use xlink:href="#s0_glyph0-2" x="152.469" y="609.078"/>
  <use xlink:href="#s0_glyph0-5" x="158.322266" y="609.078"/>
  <use xlink:href="#s0_glyph0-7" x="164.175532" y="609.078"/>
</g>
<path style="fill:none;stroke-width:0.567;stroke-linecap:butt;stroke-linejoin:miter;stroke:rgb(0%,0%,0%);stroke-opacity:1;stroke-miterlimit:10;" d="M -0.00075 -0.0003125 L 354.432844 -0.0003125 " transform="matrix(1,0,0,-1,32.157,613.695)"/>
<g style="fill:rgb(0%,0%,0%);fill-opacity:1;">
  <use xlink:href="#s0_glyph0-8" x="158.322" y="624.09"/>
  <use xlink:href="#s0_glyph0-9" x="164.175266" y="624.09"/>
  <use xlink:href="#s0_glyph0-6" x="170.028532" y="624.09"/>
</g>
<g style="fill:rgb(0%,0%,0%);fill-opacity:1;">
  <use xlink:href="#s0_glyph0-8" x="158.322" y="638.536"/>
  <use xlink:href="#s0_glyph0-10" x="164.175266" y="638.536"/>
  <use xlink:href="#s0_glyph0-10" x="170.028532" y="638.536"/>
</g>
<path style="fill:none;stroke-width:0.567;stroke-linecap:butt;stroke-linejoin:miter;stroke:rgb(0%,0%,0%);stroke-opacity:1;stroke-miterlimit:10;" d="M -0.00075 0.00065625 L 354.432844 0.00065625 " transform="matrix(1,0,0,-1,32.157,643.153)"/>
<g style="fill:rgb(0%,0%,0%);fill-opacity:1;">
  <use xlink:href="#s0_glyph0-8" x="164.175" y="653.549"/>
  <use xlink:href="#s0_glyph0-1" x="170.028266" y="653.549"/>
</g>
</g>

</g>
<text x="0" y="935.58" font-family="serif" font-size="14" fill="black">验算：</text>
<g transform="translate(228.39,944.92)">

<defs>
<g>
<symbol overflow="visible" id="s1_glyph0-0">
<path style="stroke:none;" d=""/>
</symbol>
<symbol overflow="visible" id="s1_glyph0-1">
<path style="stroke:none;" d="M 3.4375 -7.65625 C 3.4375 -7.9375 3.4375 -7.953125 3.203125 -7.953125 C 2.921875 -7.625 2.3125 -7.1875 1.09375 -7.1875 L 1.09375 -6.84375 C 1.359375 -6.84375 1.953125 -6.84375 2.625 -7.140625 L 2.625 -0.921875 C 2.625 -0.484375 2.578125 -0.34375 1.53125 -0.34375 L 1.15625 -0.34375 L 1.15625 0 C 1.484375 -0.03125 2.640625 -0.03125 3.03125 -0.03125 C 3.4375 -0.03125 4.578125 -0.03125 4.90625 0 L 4.90625 -0.34375 L 4.53125 -0.34375 C 3.484375 -0.34375 3.4375 -0.484375 3.4375 -0.921875 Z M 3.4375 -7.65625 "/>
</symbol>
<symbol overflow="visible" id="s1_glyph0-2">
<path style="stroke:none;" d="M 1.53125 -6.84375 C 2.046875 -6.6875 2.46875 -6.671875 2.59375 -6.671875 C 3.9375 -6.671875 4.8125 -7.65625 4.8125 -7.828125 C 4.8125 -7.875 4.78125 -7.9375 4.703125 -7.9375 C 4.6875 -7.9375 4.65625 -7.9375 4.546875 -7.890625 C 3.890625 -7.609375 3.3125 -7.5625 3 -7.5625 C 2.21875 -7.5625 1.65625 -7.8125 1.421875 -7.90625 C 1.34375 -7.9375 1.3125 -7.9375 1.296875 -7.9375 C 1.203125 -7.9375 1.203125 -7.859375 1.203125 -7.671875 L 1.203125 -4.125 C 1.203125 -3.90625 1.203125 -3.84375 1.34375 -3.84375 C 1.40625 -3.84375 1.421875 -3.84375 1.546875 -4 C 1.875 -4.484375 2.4375 -4.765625 3.03125 -4.765625 C 3.671875 -4.765625 3.984375 -4.1875 4.078125 -3.984375 C 4.28125 -3.515625 4.296875 -2.921875 4.296875 -2.46875 C 4.296875 -2.015625 4.296875 -1.34375 3.953125 -0.796875 C 3.6875 -0.375 3.234375 -0.078125 2.703125 -0.078125 C 1.90625 -0.078125 1.140625 -0.609375 0.921875 -1.484375 C 0.984375 -1.453125 1.046875 -1.453125 1.109375 -1.453125 C 1.3125 -1.453125 1.640625 -1.5625 1.640625 -1.96875 C 1.640625 -2.3125 1.40625 -2.5 1.109375 -2.5 C 0.890625 -2.5 0.578125 -2.390625 0.578125 -1.921875 C 0.578125 -0.90625 1.40625 0.25 2.71875 0.25 C 4.078125 0.25 5.265625 -0.890625 5.265625 -2.40625 C 5.265625 -3.828125 4.296875 -5.015625 3.046875 -5.015625 C 2.359375 -5.015625 1.84375 -4.703125 1.53125 -4.375 Z M 1.53125 -6.84375 "/>
</symbol>
<symbol overflow="visible" id="s1_glyph0-3">
<path style="stroke:none;" d="M 2.203125 -0.578125 C 2.203125 -0.90625 1.921875 -1.15625 1.625 -1.15625 C 1.28125 -1.15625 1.046875 -0.890625 1.046875 -0.578125 C 1.046875 -0.234375 1.34375 0 1.609375 0 C 1.9375 0 2.203125 -0.25 2.203125 -0.578125 Z M 2.203125 -0.578125 "/>
</symbol>
<symbol overflow="visible" id="s1_glyph0-4">
<path style="stroke:none;" d="M 3.5625 -4.3125 C 4.15625 -4.640625 5.03125 -5.1875 5.03125 -6.1875 C 5.03125 -7.234375 4.03125 -7.953125 2.921875 -7.953125 C 1.75 -7.953125 0.8125 -7.078125 0.8125 -5.984375 C 0.8125 -5.578125 0.9375 -5.171875 1.265625 -4.765625 C 1.40625 -4.609375 1.40625 -4.609375 2.25 -4.015625 C 1.09375 -3.484375 0.484375 -2.671875 0.484375 -1.8125 C 0.484375 -0.53125 1.703125 0.25 2.921875 0.25 C 4.25 0.25 5.359375 -0.734375 5.359375 -1.984375 C 5.359375 -3.203125 4.5 -3.734375 3.5625 -4.3125 Z M 1.9375 -5.390625 C 1.78125 -5.5 1.296875 -5.8125 1.296875 -6.390625 C 1.296875 -7.171875 2.109375 -7.65625 2.921875 -7.65625 C 3.78125 -7.65625 4.546875 -7.046875 4.546875 -6.1875 C 4.546875 -5.453125 4.015625 -4.859375 3.328125 -4.484375 Z M 2.5 -3.84375 L 3.9375 -2.90625 C 4.25 -2.703125 4.8125 -2.328125 4.8125 -1.609375 C 4.8125 -0.6875 3.890625 -0.078125 2.921875 -0.078125 C 1.90625 -0.078125 1.046875 -0.8125 1.046875 -1.8125 C 1.046875 -2.734375 1.71875 -3.484375 2.5 -3.84375 Z M 2.5 -3.84375 "/>
</symbol>
<symbol overflow="visible" id="s1_glyph0-5">
<path style="stroke:none;" d="M 1.46875 -4.15625 C 1.46875 -7.1875 2.9375 -7.65625 3.578125 -7.65625 C 4.015625 -7.65625 4.453125 -7.53125 4.671875 -7.171875 C 4.53125 -7.171875 4.078125 -7.171875 4.078125 -6.6875 C 4.078125 -6.421875 4.25 -6.1875 4.5625 -6.1875 C 4.859375 -6.1875 5.0625 -6.375 5.0625 -6.71875 C 5.0625 -7.34375 4.609375 -7.953125 3.578125 -7.953125 C 2.0625 -7.953125 0.484375 -6.40625 0.484375 -3.78125 C 0.484375 -0.484375 1.921875 0.25 2.9375 0.25 C 4.25 0.25 5.359375 -0.890625 5.359375 -2.4375 C 5.359375 -4.03125 4.25 -5.09375 3.046875 -5.09375 C 1.984375 -5.09375 1.59375 -4.171875 1.46875 -3.84375 Z M 2.9375 -0.078125 C 2.1875 -0.078125 1.828125 -0.734375 1.71875 -0.984375 C 1.609375 -1.296875 1.5 -1.890625 1.5 -2.71875 C 1.5 -3.671875 1.921875 -4.859375 3 -4.859375 C 3.65625 -4.859375 4 -4.40625 4.1875 -4 C 4.375 -3.5625 4.375 -2.96875 4.375 -2.453125 C 4.375 -1.84375 4.375 -1.296875 4.140625 -0.84375 C 3.84375 -0.28125 3.421875 -0.078125 2.9375 -0.078125 Z M 2.9375 -0.078125 "/>
</symbol>
<symbol overflow="visible" id="s1_glyph0-6">
<path style="stroke:none;" d="M 4.375 -3.484375 C 4.375 -0.65625 3.125 -0.078125 2.40625 -0.078125 C 2.109375 -0.078125 1.484375 -0.109375 1.1875 -0.53125 L 1.25 -0.53125 C 1.34375 -0.5 1.765625 -0.578125 1.765625 -1.015625 C 1.765625 -1.28125 1.59375 -1.5 1.28125 -1.5 C 0.96875 -1.5 0.78125 -1.296875 0.78125 -0.984375 C 0.78125 -0.25 1.375 0.25 2.421875 0.25 C 3.90625 0.25 5.359375 -1.34375 5.359375 -3.9375 C 5.359375 -7.140625 4.015625 -7.953125 2.96875 -7.953125 C 1.65625 -7.953125 0.484375 -6.84375 0.484375 -5.265625 C 0.484375 -3.6875 1.609375 -2.625 2.796875 -2.625 C 3.6875 -2.625 4.140625 -3.265625 4.375 -3.875 Z M 2.84375 -2.859375 C 2.09375 -2.859375 1.765625 -3.46875 1.65625 -3.6875 C 1.46875 -4.140625 1.46875 -4.71875 1.46875 -5.265625 C 1.46875 -5.921875 1.46875 -6.5 1.78125 -7 C 2 -7.3125 2.3125 -7.65625 2.96875 -7.65625 C 3.640625 -7.65625 4 -7.0625 4.109375 -6.796875 C 4.34375 -6.203125 4.34375 -5.1875 4.34375 -5.015625 C 4.34375 -4 3.890625 -2.859375 2.84375 -2.859375 Z M 2.84375 -2.859375 "/>
</symbol>
<symbol overflow="visible" id="s1_glyph0-7">
<path style="stroke:none;" d="M 4.3125 -7.78125 C 4.3125 -8.015625 4.3125 -8.0625 4.140625 -8.0625 C 4.046875 -8.0625 4.015625 -8.0625 3.921875 -7.921875 L 0.328125 -2.34375 L 0.328125 -2 L 3.46875 -2 L 3.46875 -0.90625 C 3.46875 -0.46875 3.4375 -0.34375 2.5625 -0.34375 L 2.328125 -0.34375 L 2.328125 0 C 2.609375 -0.03125 3.546875 -0.03125 3.890625 -0.03125 C 4.21875 -0.03125 5.171875 -0.03125 5.453125 0 L 5.453125 -0.34375 L 5.21875 -0.34375 C 4.34375 -0.34375 4.3125 -0.46875 4.3125 -0.90625 L 4.3125 -2 L 5.515625 -2 L 5.515625 -2.34375 L 4.3125 -2.34375 Z M 3.53125 -6.84375 L 3.53125 -2.34375 L 0.625 -2.34375 Z M 3.53125 -6.84375 "/>
</symbol>
<symbol overflow="visible" id="s1_glyph0-8">
<path style="stroke:none;" d="M 2.203125 -4.296875 C 2 -4.28125 1.953125 -4.265625 1.953125 -4.15625 C 1.953125 -4.046875 2.015625 -4.046875 2.21875 -4.046875 L 2.765625 -4.046875 C 3.796875 -4.046875 4.25 -3.203125 4.25 -2.0625 C 4.25 -0.484375 3.4375 -0.078125 2.84375 -0.078125 C 2.265625 -0.078125 1.296875 -0.34375 0.9375 -1.140625 C 1.328125 -1.078125 1.671875 -1.296875 1.671875 -1.71875 C 1.671875 -2.0625 1.421875 -2.3125 1.09375 -2.3125 C 0.796875 -2.3125 0.484375 -2.140625 0.484375 -1.6875 C 0.484375 -0.625 1.546875 0.25 2.875 0.25 C 4.296875 0.25 5.359375 -0.84375 5.359375 -2.046875 C 5.359375 -3.140625 4.46875 -4 3.328125 -4.203125 C 4.359375 -4.5 5.03125 -5.375 5.03125 -6.3125 C 5.03125 -7.25 4.046875 -7.953125 2.890625 -7.953125 C 1.703125 -7.953125 0.8125 -7.21875 0.8125 -6.34375 C 0.8125 -5.875 1.1875 -5.765625 1.359375 -5.765625 C 1.609375 -5.765625 1.90625 -5.953125 1.90625 -6.3125 C 1.90625 -6.6875 1.609375 -6.859375 1.34375 -6.859375 C 1.28125 -6.859375 1.25 -6.859375 1.21875 -6.84375 C 1.671875 -7.65625 2.796875 -7.65625 2.859375 -7.65625 C 3.25 -7.65625 4.03125 -7.484375 4.03125 -6.3125 C 4.03125 -6.078125 4 -5.421875 3.640625 -4.90625 C 3.28125 -4.375 2.875 -4.34375 2.5625 -4.328125 Z M 2.203125 -4.296875 "/>
</symbol>
<symbol overflow="visible" id="s1_glyph1-0">
<path style="stroke:none;" d=""/>
</symbol>
<symbol overflow="visible" id="s1_glyph1-1">
<path style="stroke:none;" d="M 4.65625 -3.328125 L 2.265625 -5.703125 C 2.109375 -5.84375 2.09375 -5.875 2 -5.875 C 1.875 -5.875 1.75 -5.765625 1.75 -5.625 C 1.75 -5.546875 1.78125 -5.515625 1.90625 -5.390625 L 4.296875 -2.984375 L 1.90625 -0.578125 C 1.78125 -0.453125 1.75 -0.4375 1.75 -0.34375 C 1.75 -0.21875 1.875 -0.109375 2 -0.109375 C 2.09375 -0.109375 2.109375 -0.125 2.265625 -0.28125 L 4.640625 -2.65625 L 7.109375 -0.171875 C 7.140625 -0.171875 7.21875 -0.109375 7.296875 -0.109375 C 7.4375 -0.109375 7.53125 -0.21875 7.53125 -0.34375 C 7.53125 -0.375 7.53125 -0.421875 7.5 -0.484375 C 7.484375 -0.5 5.578125 -2.375 4.984375 -2.984375 L 7.171875 -5.171875 C 7.234375 -5.25 7.40625 -5.40625 7.46875 -5.46875 C 7.484375 -5.5 7.53125 -5.546875 7.53125 -5.625 C 7.53125 -5.765625 7.4375 -5.875 7.296875 -5.875 C 7.203125 -5.875 7.140625 -5.828125 7.015625 -5.6875 Z M 4.65625 -3.328125 "/>
</symbol>
</g>
</defs>
<g id="s1_surface1">
<g style="fill:rgb(0%,0%,0%);fill-opacity:1;">
  <use xlink:href="#s1_glyph0-1" x="22.478" y="20.195"/>
</g>
<g style="fill:rgb(0%,0%,0%);fill-opacity:1;">
  <use xlink:href="#s1_glyph0-2" x="32.7786" y="20.195"/>
</g>
<g style="fill:rgb(0%,0%,0%);fill-opacity:1;">
  <use xlink:href="#s1_glyph0-3" x="39.217671" y="20.195"/>
</g>
<g style="fill:rgb(0%,0%,0%);fill-opacity:1;">
  <use xlink:href="#s1_glyph0-4" x="43.067245" y="20.195"/>
</g>
<g style="fill:rgb(0%,0%,0%);fill-opacity:1;">
  <use xlink:href="#s1_glyph0-5" x="32.773" y="34.641"/>
</g>
<g style="fill:rgb(0%,0%,0%);fill-opacity:1;">
  <use xlink:href="#s1_glyph0-1" x="43.0736" y="34.641"/>
</g>
<g style="fill:rgb(0%,0%,0%);fill-opacity:1;">
  <use xlink:href="#s1_glyph0-1" x="22.478" y="49.086"/>
</g>
<g style="fill:rgb(0%,0%,0%);fill-opacity:1;">
  <use xlink:href="#s1_glyph0-2" x="32.7786" y="49.086"/>
</g>
<g style="fill:rgb(0%,0%,0%);fill-opacity:1;">
  <use xlink:href="#s1_glyph0-4" x="43.067245" y="49.086"/>
</g>
<g style="fill:rgb(0%,0%,0%);fill-opacity:1;">
  <use xlink:href="#s1_glyph0-6" x="12.183" y="63.532"/>
</g>
<g style="fill:rgb(0%,0%,0%);fill-opacity:1;">
  <use xlink:href="#s1_glyph0-7" x="22.4836" y="63.532"/>
</g>
<g style="fill:rgb(0%,0%,0%);fill-opacity:1;">
  <use xlink:href="#s1_glyph0-4" x="32.772245" y="63.532"/>
</g>
<g style="fill:rgb(0%,0%,0%);fill-opacity:1;">
  <use xlink:href="#s1_glyph0-6" x="12.183" y="77.978"/>
</g>
<g style="fill:rgb(0%,0%,0%);fill-opacity:1;">
  <use xlink:href="#s1_glyph0-5" x="22.4836" y="77.978"/>
</g>
<g style="fill:rgb(0%,0%,0%);fill-opacity:1;">
  <use xlink:href="#s1_glyph0-8" x="32.772245" y="77.978"/>
</g>
<g style="fill:rgb(0%,0%,0%);fill-opacity:1;">
  <use xlink:href="#s1_glyph0-3" x="39.223271" y="77.978"/>
</g>
<g style="fill:rgb(0%,0%,0%);fill-opacity:1;">
  <use xlink:href="#s1_glyph0-4" x="43.072846" y="77.978"/>
</g>
<path style="fill:none;stroke-width:0.398;stroke-linecap:butt;stroke-linejoin:miter;stroke:rgb(0%,0%,0%);stroke-opacity:1;stroke-miterlimit:10;" d="M 0.00184375 -0.00053125 L 41.177625 -0.00053125 " transform="matrix(1,0,0,-1,9.963,67.144)"/>
<path style="fill:none;stroke-width:0.398;stroke-linecap:butt;stroke-linejoin:miter;stroke:rgb(0%,0%,0%);stroke-opacity:1;stroke-miterlimit:10;" d="M 0.00184375 -0.00190625 L 41.177625 -0.00190625 " transform="matrix(1,0,0,-1,9.963,38.252)"/>
<g style="fill:rgb(0%,0%,0%);fill-opacity:1;">
  <use xlink:href="#s1_glyph1-1" x="9.963" y="34.641"/>
</g>
</g>

</g>

</svg>