<?xml version="1.0" encoding="UTF-8"?>
<svg xmlns="http://www.w3.org/2000/svg" xmlns:xlink="http://www.w3.org/1999/xlink"
     width="93.31" height="102.99"
     viewBox="0 0 93.31 102.99">
<rect width="100%" height="100%" fill="white"/>
<text x="0" y="20.00" font-family="serif" font-size="16.8" fill="black">12 × 4 = 48</text>
<g transform="translate(32.98,29.33)">

<defs>
<g>
<symbol overflow="visible" id="s0_glyph0-0">
<path style="stroke:none;" d=""/>
</symbol>
<symbol overflow="visible" id="s0_glyph0-1">
<path style="stroke:none;" d="M 3.4375 -7.65625 C 3.4375 -7.9375 3.4375 -7.953125 3.203125 -7.953125 C 2.921875 -7.625 2.3125 -7.1875 1.09375 -7.1875 L 1.09375 -6.84375 C 1.359375 -6.84375 1.953125 -6.84375 2.625 -7.140625 L 2.625 -0.921875 C 2.625 -0.484375 2.578125 -0.34375 1.53125 -0.34375 L 1.15625 -0.34375 L 1.15625 0 C 1.484375 -0.03125 2.640625 -0.03125 3.03125 -0.03125 C 3.4375 -0.03125 4.578125 -0.03125 4.90625 0 L 4.90625 -0.34375 L 4.53125 -0.34375 C 3.484375 -0.34375 3.4375 -0.484375 3.4375 -0.921875 Z M 3.4375 -7.65625 "/>
</symbol>
<symbol overflow="visible" id="s0_glyph0-2">
<path style="stroke:none;" d="M 5.265625 -2.015625 L 5 -2.015625 C 4.953125 -1.8125 4.859375 -1.140625 4.75 -0.953125 C 4.65625 -0.84375 3.984375 -0.84375 3.625 -0.84375 L 1.40625 -0.84375 C 1.734375 -1.125 2.46875 -1.890625 2.765625 -2.171875 C 4.59375 -3.84375 5.265625 -4.46875 5.265625 -5.65625 C 5.265625 -7.03125 4.171875 -7.953125 2.78125 -7.953125 C 1.40625 -7.953125 0.578125 -6.765625 0.578125 -5.734375 C 0.578125 -5.125 1.109375 -5.125 1.140625 -5.125 C 1.40625 -5.125 1.703125 -5.3125 1.703125 -5.6875 C 1.703125 -6.03125 1.484375 -6.25 1.140625 -6.25 C 1.046875 -6.25 1.015625 -6.25 0.984375 -6.234375 C 1.203125 -7.046875 1.859375 -7.609375 2.625 -7.609375 C 3.640625 -7.609375 4.265625 -6.75 4.265625 -5.65625 C 4.265625 -4.640625 3.6875 -3.75 3 -2.984375 L 0.578125 -0.28125 L 0.578125 0 L 4.953125 0 Z M 5.265625 -2.015625 "/>
</symbol>
<symbol overflow="visible" id="s0_glyph0-3">
<path style="stroke:none;" d="M 4.3125 -7.78125 C 4.3125 -8.015625 4.3125 -8.0625 4.140625 -8.0625 C 4.046875 -8.0625 4.015625 -8.0625 3.921875 -7.921875 L 0.328125 -2.34375 L 0.328125 -2 L 3.46875 -2 L 3.46875 -0.90625 C 3.46875 -0.46875 3.4375 -0.34375 2.5625 -0.34375 L 2.328125 -0.34375 L 2.328125 0 C 2.609375 -0.03125 3.546875 -0.03125 3.890625 -0.03125 C 4.21875 -0.03125 5.171875 -0.03125 5.453125 0 L 5.453125 -0.34375 L 5.21875 -0.34375 C 4.34375 -0.34375 4.3125 -0.46875 4.3125 -0.90625 L 4.3125 -2 L 5.515625 -2 L 5.515625 -2.34375 L 4.3125 -2.34375 Z M 3.53125 -6.84375 L 3.53125 -2.34375 L 0.625 -2.34375 Z M 3.53125 -6.84375 "/>
</symbol>
<symbol overflow="visible" id="s0_glyph0-4">
<path style="stroke:none;" d="M 3.5625 -4.3125 C 4.15625 -4.640625 5.03125 -5.1875 5.03125 -6.1875 C 5.03125 -7.234375 4.03125 -7.953125 2.921875 -7.953125 C 1.75 -7.953125 0.8125 -7.078125 0.8125 -5.984375 C 0.8125 -5.578125 0.9375 -5.171875 1.265625 -4.765625 C 1.40625 -4.609375 1.40625 -4.609375 2.25 -4.015625 C 1.09375 -3.484375 0.484375 -2.671875 0.484375 -1.8125 C 0.484375 -0.53125 1.703125 0.25 2.921875 0.25 C 4.25 0.25 5.359375 -0.734375 5.359375 -1.984375 C 5.359375 -3.203125 4.5 -3.734375 3.5625 -4.3125 Z M 1.9375 -5.390625 C 1.78125 -5.5 1.296875 -5.8125 1.296875 -6.390625 C 1.296875 -7.171875 2.109375 -7.65625 2.921875 -7.65625 C 3.78125 -7.65625 4.546875 -7.046875 4.546875 -6.1875 C 4.546875 -5.453125 4.015625 -4.859375 3.328125 -4.484375 Z M 2.5 -3.84375 L 3.9375 -2.90625 C 4.25 -2.703125 4.8125 -2.328125 4.8125 -1.609375 C 4.8125 -0.6875 3.890625 -0.078125 2.921875 -0.078125 C 1.90625 -0.078125 1.046875 -0.8125 1.046875 -1.8125 C 1.046875 -2.734375 1.71875 -3.484375 2.5 -3.84375 Z M 2.5 -3.84375 "/>
</symbol>
<symbol overflow="visible" id="s0_glyph1-0">
<path style="stroke:none;" d=""/>
</symbol>
<symbol overflow="visible" id="s0_glyph1-1">
<path style="stroke:none;" d="M 4.65625 -3.328125 L 2.265625 -5.703125 C 2.109375 -5.84375 2.09375 -5.875 2 -5.875 C 1.875 -5.875 1.75 -5.765625 1.75 -5.625 C 1.75 -5.546875 1.78125 -5.515625 1.90625 -5.390625 L 4.296875 -2.984375 L 1.90625 -0.578125 C 1.78125 -0.453125 1.75 -0.4375 1.75 -0.34375 C 1.75 -0.21875 1.875 -0.109375 2 -0.109375 C 2.09375 -0.109375 2.109375 -0.125 2.265625 -0.28125 L 4.640625 -2.65625 L 7.109375 -0.171875 C 7.140625 -0.171875 7.21875 -0.109375 7.296875 -0.109375 C 7.4375 -0.109375 7.53125 -0.21875 7.53125 -0.34375 C 7.53125 -0.375 7.53125 -0.421875 7.5 -0.484375 C 7.484375 -0.5 5.578125 -2.375 4.984375 -2.984375 L 7.171875 -5.171875 C 7.234375 -5.25 7.40625 -5.40625 7.46875 -5.46875 C 7.484375 -5.5 7.53125 -5.546875 7.53125 -5.625 C 7.53125 -5.765625 7.4375 -5.875 7.296875 -5.875 C 7.203125 -5.875 7.140625 -5.828125 7.015625 -5.6875 Z M 4.65625 -3.328125 "/>
</symbol>
</g>
</defs>
<g id="s0_surface1">
<g style="fill:rgb(0%,0%,0%);fill-opacity:1;">
  <use xlink:href="#s0_glyph0-1" x="12.183" y="20.195"/>
</g>
<g style="fill:rgb(0%,0%,0%);fill-opacity:1;">
  <use xlink:href="#s0_glyph0-2" x="22.4836" y="20.195"/>
</g>
<g style="fill:rgb(0%,0%,0%);fill-opacity:1;">
  <use xlink:href="#s0_glyph0-3" x="22.478" y="34.641"/>
</g>
<g style="fill:rgb(0%,0%,0%);fill-opacity:1;">
  <use xlink:href="#s0_glyph0-3" x="12.183" y="49.087"/>
</g>
<g style="fill:rgb(0%,0%,0%);fill-opacity:1;">
  <use xlink:href="#s0_glyph0-4" x="22.4836" y="49.087"/>
</g>
<path style="fill:none;stroke-width:0.398;stroke-linecap:butt;stroke-linejoin:miter;stroke:rgb(0%,0%,0%);stroke-opacity:1;stroke-miterlimit:10;" d="M 0.00184375 -0.00090625 L 20.587781 -0.00090625 " transform="matrix(1,0,0,-1,9.963,38.253)"/>
<path style="fill:none;stroke-width:0.398;stroke-linecap:butt;stroke-linejoin:miter;stroke:rgb(0%,0%,0%);stroke-opacity:1;stroke-miterlimit:10;" d="M -0.00003125 -0.00090625 L 30.882781 -0.00090625 " transform="matrix(1,0,0,-1,-0.332,38.253)"/>
<g style="fill:rgb(0%,0%,0%);fill-opacity:1;">
  <use xlink:href="#s0_glyph1-1" x="-0.332" y="34.641"/>
</g>
</g>

</g>

</svg>